<svg width="750" height="500" viewBox="0 0 750 500" fill="none" xmlns="http://www.w3.org/2000/svg">
<path d="M609.52 327.76C605.431 325.188 600.805 323.59 596 323.09C593.79 322.87 591.37 322.93 589.59 324.27C589.387 324.39 589.22 324.562 589.104 324.767C588.988 324.972 588.928 325.204 588.93 325.44C589.04 325.772 589.263 326.055 589.56 326.24C592.437 328.295 595.822 329.522 599.348 329.79C602.873 330.058 606.405 329.356 609.56 327.76" fill="#0070E7"/>
<path d="M609.17 327.37C606.032 325.066 603.104 322.489 600.42 319.67C597.725 316.837 595.833 313.337 594.94 309.53C594.761 308.966 594.707 308.37 594.782 307.783C594.856 307.196 595.057 306.632 595.37 306.13C602.37 311.58 607.82 318.63 609.17 327.37Z" fill="#0070E7"/>
<path d="M609.45 327.7C608.798 323.896 608.852 320.004 609.61 316.22C610.387 312.404 612.572 309.02 615.73 306.74C616.93 309.55 616.42 312.8 615.57 315.74C614.255 320.302 612.205 324.618 609.5 328.52" fill="#0070E7"/>
<path d="M616.29 340C612.13 340.51 608.52 342.7 605.42 345.5C602.305 348.336 600.137 352.061 599.21 356.17C603.28 355.92 606.73 353.05 609.21 349.83C611.69 346.61 613.45 343.08 616.21 340.07" fill="#0070E7"/>
<path d="M617.77 341.91C616.138 337.762 615.566 333.273 616.105 328.849C616.645 324.424 618.279 320.204 620.86 316.57C623.23 324.98 622.36 334.48 617.77 341.91Z" fill="#0070E7"/>
<path d="M626.8 352.67C623.007 352.438 619.23 353.326 615.937 355.223C612.644 357.12 609.982 359.942 608.28 363.34C608.132 363.548 608.041 363.792 608.018 364.047C607.995 364.302 608.041 364.559 608.15 364.79C608.311 364.945 608.506 365.059 608.721 365.121C608.935 365.184 609.161 365.194 609.38 365.15C613.03 364.91 616.27 362.72 618.94 360.22C621.61 357.72 623.94 354.82 626.89 352.66" fill="#0070E7"/>
<path d="M626.52 352.09C624.571 345.828 624.45 339.139 626.17 332.81C626.85 330.33 627.99 327.72 630.28 326.55C630.467 326.432 630.694 326.392 630.91 326.44C631.095 326.539 631.237 326.703 631.31 326.9C632.095 328.633 632.438 330.532 632.31 332.43C632.178 334.317 631.891 336.19 631.45 338.03C630.72 341.45 630.34 345.13 628.45 348.08C628.008 348.792 627.611 349.53 627.26 350.29C626.9 351.04 626.9 351.29 626.58 351.9" fill="#0070E7"/>
<path d="M650.43 355.65C648.66 348.91 650.54 340.74 654.79 335.21C655.1 334.81 655.51 334.37 656.02 334.42C656.81 334.49 657.02 335.53 657.02 336.32C656.701 343.25 654.435 349.95 650.48 355.65" fill="#0070E7"/>
<path d="M652.59 357.12C656.775 358.099 661.123 358.159 665.334 357.296C669.544 356.433 673.518 354.667 676.98 352.12C672.896 350.071 668.228 349.499 663.77 350.5C659.36 351.5 655.33 353.5 652.59 357.08" fill="#0070E7"/>
<path d="M654.4 352.63C658.99 345.16 667.78 340.28 676.54 339.83C675.54 343.4 672.6 346.17 669.3 347.83C665.919 349.37 662.342 350.437 658.67 351C657.26 351.27 655.32 351.57 654.4 352.68" fill="#0070E7"/>
<path d="M650.89 330.86C652.281 326.636 653.229 322.28 653.72 317.86C654.206 313.418 653.301 308.935 651.13 305.03C646.85 313.32 646.42 323.03 650.76 331.27" fill="#0070E7"/>
<path d="M665.31 323.57C670.31 314.47 680.54 307.2 690.88 306.18C686.88 316.11 676.01 323.79 665.31 323.57Z" fill="#0070E7"/>
<path d="M662.15 325.36C669.63 326.49 675.99 331.27 682.97 334.16C684.434 334.866 686.058 335.176 687.68 335.06C688.435 335.052 689.168 334.812 689.782 334.373C690.396 333.933 690.859 333.316 691.11 332.604C691.361 331.893 691.388 331.121 691.185 330.394C690.983 329.667 690.562 329.02 689.98 328.54C688.994 327.628 687.834 326.924 686.57 326.47C678.96 323.3 670.81 323.22 662.8 325.14" fill="#0070E7"/>
<path d="M657.83 330.6C659.52 331.08 660.1 331.96 661.44 333.1C666.008 336.985 671.412 339.76 677.23 341.21C677.83 341.36 678.62 341.41 678.92 340.87C679.22 340.33 678.85 339.82 678.51 339.39C675.97 336.419 672.678 334.185 668.98 332.92C665.34 331.57 662.18 329.92 657.83 330.28" fill="#0070E7"/>
<path d="M653 299C656.064 301.824 659.686 303.976 663.631 305.318C667.577 306.66 671.759 307.161 675.91 306.79C676.277 306.79 676.631 306.658 676.91 306.42C677.49 305.79 676.79 304.82 676.12 304.3C669.39 299.05 661.23 296.87 652.96 299" fill="#0070E7"/>
<path d="M658.74 296.83C662.795 293.848 667.498 291.866 672.465 291.048C677.432 290.229 682.522 290.597 687.32 292.12C683.582 295.592 678.785 297.705 673.7 298.12C668.664 298.579 663.587 298.149 658.7 296.85" fill="#0070E7"/>
<path d="M656.44 282.29C655.78 275.57 656.21 270.29 655.74 263.51C655.74 262.97 655.59 262.32 655.08 262.13C654.38 261.86 653.79 262.72 653.56 263.44C652.584 266.57 652.335 269.881 652.832 273.122C653.329 276.363 654.56 279.447 656.43 282.14" fill="#0070E7"/>
<path d="M656 283C660.391 280.167 664.174 276.489 667.13 272.18C669.33 269.18 671.13 265.57 670.68 261.88C669.136 261.927 667.621 262.309 666.24 262.999C664.858 263.69 663.644 264.673 662.68 265.88C660.761 268.31 659.368 271.113 658.59 274.11C657.7 277.11 657.07 280.11 656.03 283.01" fill="#0070E7"/>
<path d="M666.89 280C676.913 276.288 686.192 270.815 694.29 263.84C691.02 262.52 687.29 263.31 684 264.63C676.573 267.445 670.436 272.885 666.75 279.92" fill="#0070E7"/>
<path d="M659 286.71C664.043 287.426 669.16 287.453 674.21 286.79C679.15 285.96 683.81 284.01 688.42 282.07C688.838 281.964 689.197 281.698 689.42 281.33C689.492 281.118 689.498 280.888 689.438 280.672C689.377 280.456 689.252 280.264 689.08 280.12C688.725 279.841 688.311 279.647 687.87 279.55C682.87 278.15 677.45 278.81 672.52 280.47C667.808 282.073 663.277 284.164 659 286.71Z" fill="#0070E7"/>
<path d="M630.15 299.18C626.7 292.18 626.92 284.09 629.9 276.91C632 280.1 632.26 284.18 631.9 287.98C631.54 291.78 630.36 295.7 630.29 299.53" fill="#0070E7"/>
<path d="M616.36 292.23C612.04 292.17 607.756 293.013 603.781 294.706C599.807 296.399 596.23 298.904 593.28 302.06C597.633 302.585 602.043 301.769 605.92 299.72C609.767 297.677 613.395 295.248 616.75 292.47" fill="#0070E7"/>
<path d="M607.1 289.13C602.88 288.79 598.83 288.26 594.77 289.51C592.721 290.088 590.821 291.103 589.201 292.483C587.58 293.864 586.277 295.579 585.38 297.51C589.356 297.831 593.345 297.078 596.93 295.33C600.495 293.581 603.899 291.52 607.1 289.17" fill="#0070E7"/>
<path d="M620.82 289.27C617.03 286.78 613.13 284.27 608.72 283.27C604.31 282.27 599.19 283 596.11 286.27C599.68 288.37 604.02 288.62 608.11 288.62C612.2 288.62 617.34 288.57 621.24 289.95" fill="#0070E7"/>
<path d="M620.84 289.47C614.36 283.1 611.9 271.67 614.51 262.97C619.626 270.803 621.864 280.17 620.84 289.47Z" fill="#0070E7"/>
<path d="M638.67 271.43C639.89 268.59 640.75 265.61 641.84 262.72C642.849 259.797 644.388 257.085 646.38 254.72C648.398 252.338 651.271 250.845 654.38 250.56C653.386 254.953 651.486 259.089 648.801 262.705C646.117 266.321 642.707 269.337 638.79 271.56" fill="#0070E7"/>
<path d="M635.44 275.19C633.44 272.41 631.08 268.63 628.34 266.55C625.6 264.47 622.02 263.21 618.67 264.01C620.404 267.049 622.822 269.642 625.733 271.583C628.644 273.524 631.968 274.759 635.44 275.19Z" fill="#0070E7"/>
<path d="M636.09 271.67C634.632 268.35 633.558 264.874 632.89 261.31C632.223 257.718 632.794 254.005 634.51 250.78C638.07 257.51 639.21 264.78 636.27 271.78" fill="#0070E7"/>
<path d="M638.7 250.78C640.7 244.11 646.82 239.2 653.41 236.95C654.227 236.618 655.111 236.485 655.99 236.56C656.428 236.609 656.842 236.786 657.18 237.068C657.518 237.351 657.765 237.727 657.89 238.15C658.13 239.28 657.2 240.3 656.31 241.05C651.158 245.451 645.168 248.761 638.7 250.78Z" fill="#0070E7"/>
<path d="M638.77 245.33C639.03 241.03 639.3 236.67 640.69 232.59C642.08 228.51 644.79 224.7 648.69 222.92C649.36 227.26 647.44 231.58 645.13 235.31C642.82 239.04 640.03 242.58 638.65 246.74" fill="#0070E7"/>
<path d="M638.67 248.29C637 243.43 636.83 237.29 633.92 233.02C631.92 230.02 628.63 228.02 626.92 224.91C625.868 227.919 626.015 231.217 627.33 234.12C628.656 236.986 630.481 239.593 632.72 241.82C634.87 244.12 636.72 245.82 638.72 248.29" fill="#0070E7"/>
<path d="M638.7 391.39C638.57 391.39 638.46 358.98 638.45 319C638.44 279.02 638.54 246.59 638.67 246.59C638.8 246.59 638.91 279 638.92 319C638.93 359 638.83 391.39 638.7 391.39Z" fill="white"/>
<path d="M667 294.29C666.607 294.478 666.199 294.632 665.78 294.75L662.42 295.88C659.6 296.88 655.71 298.24 651.49 299.96C647.27 301.68 643.38 303.21 641.14 305.15C640.245 305.899 639.533 306.843 639.06 307.91C638.74 308.67 638.68 309.13 638.64 309.12C638.6 309.11 638.64 309.01 638.64 308.78C638.69 308.46 638.771 308.145 638.88 307.84C639.294 306.713 639.981 305.706 640.88 304.91C642.232 303.762 643.744 302.818 645.37 302.11C647.17 301.28 649.16 300.4 651.28 299.53C655.51 297.8 659.42 296.45 662.28 295.53C663.71 295.09 664.88 294.76 665.69 294.53C666.118 294.409 666.557 294.328 667 294.29Z" fill="white"/>
<path d="M676.31 271.48C676.215 271.616 676.101 271.738 675.97 271.84L674.97 272.84L671.09 276.37L658.16 287.88C653.16 292.37 648.76 296.66 645.74 299.88C644.22 301.5 643.03 302.83 642.22 303.76L641.28 304.84C641.177 304.969 641.06 305.087 640.93 305.19C640.93 305.19 641.01 305.04 641.21 304.78C641.41 304.52 641.69 304.13 642.08 303.65C642.85 302.65 644.01 301.3 645.49 299.65C649.394 295.389 653.52 291.337 657.85 287.51C662.91 283.03 667.52 279 670.85 276.1L674.85 272.68C675.29 272.32 675.66 272.02 675.95 271.77C676.059 271.661 676.18 271.563 676.31 271.48Z" fill="white"/>
<path d="M652.68 292.42C652.54 292.37 653.6 289.93 654.68 286.85C655.76 283.77 656.24 281.18 656.37 281.2C656.257 283.186 655.835 285.143 655.12 287C654.67 288.328 654.146 289.63 653.55 290.9C653.331 291.444 653.039 291.956 652.68 292.42Z" fill="white"/>
<path d="M638.73 312.05C638.44 311.773 638.179 311.469 637.95 311.14L635.95 308.59C634.28 306.43 631.95 303.44 629.37 300.17C626.79 296.9 624.37 293.98 622.67 291.86L620.67 289.34C620.407 289.029 620.172 288.694 619.97 288.34C620.279 288.59 620.56 288.871 620.81 289.18C621.33 289.74 622.06 290.57 622.96 291.6C624.75 293.67 627.18 296.6 629.78 299.84C632.38 303.08 634.65 306.14 636.25 308.35C637.06 309.46 637.7 310.35 638.13 311C638.364 311.33 638.565 311.681 638.73 312.05Z" fill="white"/>
<path d="M632.52 304.07C631.262 302.687 630.365 301.014 629.91 299.2C629.426 297.611 629.227 295.949 629.32 294.29H629.53C629.44 294.66 629.37 294.86 629.33 294.85C629.29 294.84 629.33 294.64 629.33 294.25H629.53C629.637 295.868 629.915 297.47 630.36 299.03C630.949 300.763 631.671 302.448 632.52 304.07Z" fill="white"/>
<path d="M624.5 294C623.936 293.581 623.325 293.229 622.68 292.95C621.059 292.47 619.356 292.334 617.68 292.55C615.967 292.681 614.267 292.955 612.6 293.37C611.915 293.582 611.217 293.749 610.51 293.87C611.13 293.493 611.804 293.217 612.51 293.05C614.177 292.525 615.898 292.189 617.64 292.05C619.393 291.816 621.177 292.008 622.84 292.61C623.537 292.868 624.124 293.359 624.5 294Z" fill="white"/>
<path d="M622.6 291.54C622.6 291.61 621.54 291.12 619.81 290.54C615.31 289 610.492 288.632 605.81 289.47C604.01 289.79 602.93 290.12 602.9 290.05C603.13 289.908 603.379 289.8 603.64 289.73C604.328 289.492 605.029 289.295 605.74 289.14C610.481 288.106 615.42 288.482 619.95 290.22C620.635 290.481 621.303 290.785 621.95 291.13C622.186 291.234 622.405 291.372 622.6 291.54Z" fill="white"/>
<path d="M638.67 281.2C637.848 278.897 637.18 276.542 636.67 274.15C635.987 271.797 635.459 269.402 635.09 266.98C635.905 269.289 636.573 271.647 637.09 274.04C637.767 276.391 638.294 278.782 638.67 281.2Z" fill="white"/>
<path d="M638.8 281.2C638.145 279.745 637.393 278.335 636.55 276.98C635.592 275.704 634.477 274.555 633.23 273.56C633.702 273.678 634.14 273.904 634.51 274.22C635.452 274.907 636.27 275.749 636.93 276.71C637.933 278.019 638.577 279.566 638.8 281.2Z" fill="white"/>
<path d="M638.7 374.11C638.65 374.11 638.55 373.33 638.19 371.96C637.654 370.02 636.927 368.137 636.02 366.34C632.898 360.474 629.036 355.033 624.53 350.15C621.96 347.22 619.47 344.45 617.36 341.81C615.463 339.478 613.748 337.004 612.23 334.41C611.216 332.658 610.35 330.825 609.64 328.93C609.41 328.25 609.23 327.72 609.14 327.36C609.076 327.178 609.029 326.991 609 326.8C609 326.8 609.28 327.54 609.81 328.86C610.581 330.72 611.487 332.522 612.52 334.25C614.069 336.799 615.797 339.235 617.69 341.54C619.82 344.16 622.31 346.91 624.88 349.84C630.07 355.67 634.14 361.55 636.32 366.2C637.193 368.025 637.864 369.939 638.32 371.91C638.447 372.447 638.544 372.992 638.61 373.54C638.658 373.727 638.688 373.918 638.7 374.11Z" fill="white"/>
<path d="M664.3 345.2C663.881 345.489 663.447 345.756 663 346C661.788 346.684 660.625 347.453 659.52 348.3C657.89 349.568 656.362 350.962 654.95 352.47C653.34 354.17 651.69 356.13 650 358.24C646.63 362.47 643.48 366.24 641.59 369.24C640.59 370.73 639.93 371.98 639.48 372.85C639.265 373.317 639.018 373.768 638.74 374.2C638.74 374.2 638.74 374.07 638.86 373.82C638.98 373.57 639.1 373.22 639.31 372.77C639.901 371.497 640.569 370.262 641.31 369.07C643.869 365.218 646.65 361.518 649.64 357.99C651.33 355.88 653 353.9 654.64 352.21C656.085 350.704 657.654 349.323 659.33 348.08C660.463 347.247 661.663 346.511 662.92 345.88C663.37 345.66 663.73 345.52 663.92 345.42C664.11 345.32 664.29 345.18 664.3 345.2Z" fill="white"/>
<path d="M664.8 354.58C663.878 354.789 662.942 354.929 662 355C659.724 355.238 657.475 355.683 655.28 356.33C653.114 357.031 651.084 358.1 649.28 359.49C647.89 360.56 647.23 361.49 647.17 361.39C647.273 361.151 647.415 360.932 647.59 360.74C648.029 360.186 648.525 359.68 649.07 359.23C650.862 357.733 652.927 356.595 655.15 355.88C657.375 355.213 659.671 354.807 661.99 354.67C662.922 354.554 663.863 354.524 664.8 354.58Z" fill="white"/>
<path d="M647.94 360.35C647.79 360.27 649.07 358.35 650.06 355.69C651.05 353.03 651.21 350.69 651.37 350.75C651.456 351.253 651.456 351.767 651.37 352.27C651.223 353.49 650.945 354.69 650.54 355.85C650.107 357.002 649.554 358.104 648.89 359.14C648.35 359.93 648 360.39 647.94 360.35Z" fill="white"/>
<path d="M672.59 320C672.443 320.091 672.289 320.171 672.13 320.24L670.8 320.84C670.22 321.09 669.51 321.41 668.71 321.84C667.91 322.27 666.98 322.68 666 323.27L664.45 324.15C663.92 324.45 663.39 324.82 662.82 325.15C661.68 325.85 660.54 326.7 659.32 327.57C656.723 329.528 654.277 331.678 652 334C649.76 336.353 647.695 338.867 645.82 341.52C644.99 342.77 644.18 343.94 643.53 345.11C643.2 345.68 642.85 346.23 642.53 346.77C642.21 347.31 641.97 347.85 641.7 348.35C641.15 349.35 640.76 350.29 640.37 351.11C639.98 351.93 639.68 352.64 639.45 353.23C639.22 353.82 639.04 354.23 638.89 354.58C638.835 354.741 638.761 354.896 638.67 355.04C638.692 354.871 638.74 354.706 638.81 354.55C638.93 354.18 639.09 353.73 639.28 353.16C639.47 352.59 639.76 351.83 640.13 351C640.5 350.17 640.87 349.21 641.4 348.2L642.21 346.6C642.49 346.05 642.84 345.5 643.21 344.91C643.86 343.73 644.66 342.54 645.49 341.28C647.352 338.586 649.422 336.042 651.68 333.67C653.978 331.337 656.448 329.181 659.07 327.22C660.31 326.35 661.47 325.51 662.62 324.83C663.2 324.48 663.74 324.12 664.28 323.83C664.82 323.54 665.35 323.25 665.85 322.97C666.85 322.41 667.79 321.97 668.61 321.61C669.303 321.266 670.014 320.959 670.74 320.69L672.11 320.16C672.26 320.08 672.422 320.025 672.59 320Z" fill="white"/>
<path d="M652.33 333.59C652.517 332.934 652.905 332.353 653.44 331.93C654.69 330.85 656.278 330.241 657.93 330.21C659.548 330.205 661.152 330.517 662.65 331.13C663.286 331.332 663.889 331.625 664.44 332C663.794 331.878 663.161 331.693 662.55 331.45C661.07 330.94 659.515 330.679 657.95 330.68C656.396 330.709 654.893 331.234 653.66 332.18C653.182 332.616 652.738 333.088 652.33 333.59Z" fill="white"/>
<path d="M649.3 336.71C650.659 334.104 651.015 331.091 650.3 328.24C650.572 328.594 650.754 329.01 650.83 329.45C651.1 330.484 651.175 331.559 651.05 332.62C650.924 333.671 650.602 334.688 650.1 335.62C649.69 336.38 649.35 336.75 649.3 336.71Z" fill="white"/>
<path d="M616.31 378.76C617.01 391.15 620.74 403.76 626.48 416.48H651.48C656.96 403.87 660.43 391.29 661.05 378.76H616.31Z" fill="#455A64"/>
<path d="M657 398.8C657 398.93 648.77 399.04 638.63 399.04C628.49 399.04 620.27 398.93 620.27 398.8C620.27 398.67 628.49 398.57 638.63 398.57C648.77 398.57 657 398.68 657 398.8Z" fill="#FAFAFA"/>
<path d="M656.42 403.29C656.42 403.42 648.71 403.53 639.2 403.53C629.69 403.53 621.99 403.42 621.99 403.29C621.99 403.16 629.7 403.06 639.2 403.06C648.7 403.06 656.42 403.16 656.42 403.29Z" fill="#FAFAFA"/>
<path d="M545.84 156.3H190.46C182.413 156.3 175.89 162.823 175.89 170.87V396.01C175.89 404.057 182.413 410.58 190.46 410.58H545.84C553.887 410.58 560.41 404.057 560.41 396.01V170.87C560.41 162.823 553.887 156.3 545.84 156.3Z" fill="#455A64"/>
<path d="M160.86 394.16H577.46V398.61C577.46 403.331 575.585 407.858 572.247 411.196C568.908 414.535 564.381 416.41 559.66 416.41H178.66C173.939 416.41 169.412 414.535 166.074 411.196C162.735 407.858 160.86 403.331 160.86 398.61V394.16Z" fill="#455A64"/>
<path d="M549.01 166.4H186.21V381.13H549.01V166.4Z" fill="#263238"/>
<path d="M330.25 391.77L335.41 400H408.16L412.96 391.77H330.25Z" fill="#263238"/>
<path d="M539.02 173.67H196.96C195.154 173.67 193.69 175.134 193.69 176.94V377.18C193.69 378.986 195.154 380.45 196.96 380.45H539.02C540.826 380.45 542.29 378.986 542.29 377.18V176.94C542.29 175.134 540.826 173.67 539.02 173.67Z" fill="#EBEBEB"/>
<path d="M541.91 380.75H193.31L193.69 189.13H541.91V380.75Z" fill="#FAFAFA"/>
<path d="M222.28 181.66C222.282 182.212 222.12 182.753 221.815 183.213C221.509 183.673 221.074 184.032 220.565 184.245C220.055 184.457 219.494 184.514 218.952 184.408C218.41 184.301 217.912 184.036 217.521 183.646C217.13 183.257 216.863 182.759 216.754 182.218C216.646 181.676 216.701 181.115 216.911 180.605C217.122 180.094 217.48 179.658 217.939 179.351C218.398 179.044 218.938 178.88 219.49 178.88C219.856 178.879 220.218 178.95 220.557 179.089C220.895 179.228 221.203 179.432 221.462 179.691C221.721 179.949 221.927 180.256 222.067 180.594C222.208 180.932 222.28 181.294 222.28 181.66Z" fill="#263238"/>
<path d="M205.4 181.66C205.402 182.213 205.24 182.753 204.934 183.214C204.628 183.674 204.193 184.033 203.682 184.246C203.172 184.458 202.61 184.514 202.068 184.407C201.526 184.3 201.028 184.034 200.637 183.643C200.246 183.252 199.98 182.754 199.873 182.212C199.766 181.67 199.822 181.108 200.034 180.598C200.247 180.087 200.606 179.652 201.066 179.346C201.527 179.04 202.067 178.878 202.62 178.88C202.985 178.879 203.348 178.95 203.685 179.089C204.023 179.228 204.33 179.433 204.589 179.691C204.847 179.95 205.052 180.257 205.191 180.595C205.33 180.932 205.401 181.295 205.4 181.66Z" fill="#263238"/>
<path d="M213.5 181.66C213.502 182.213 213.34 182.753 213.034 183.214C212.728 183.674 212.293 184.033 211.782 184.246C211.272 184.458 210.71 184.514 210.168 184.407C209.626 184.3 209.128 184.034 208.737 183.643C208.346 183.252 208.08 182.754 207.973 182.212C207.866 181.67 207.922 181.108 208.134 180.598C208.347 180.087 208.706 179.652 209.166 179.346C209.627 179.04 210.167 178.878 210.72 178.88C211.085 178.879 211.448 178.95 211.785 179.089C212.123 179.228 212.43 179.433 212.689 179.691C212.947 179.95 213.152 180.257 213.291 180.595C213.43 180.932 213.501 181.295 213.5 181.66Z" fill="#263238"/>
<path d="M557.1 391.77C557.1 391.91 471.76 392.02 366.51 392.02C261.26 392.02 175.89 391.91 175.89 391.77C175.89 391.63 261.22 391.52 366.51 391.52C471.8 391.52 557.1 391.64 557.1 391.77Z" fill="#263238"/>
<path d="M305.31 263.98L447.14 262.66L451.29 359.07L304.43 358.02L305.31 263.98Z" fill="#0070E7"/>
<path d="M305.31 264L372.31 209.55C373.686 208.431 375.406 207.82 377.18 207.82C378.954 207.82 380.674 208.431 382.05 209.55L447.13 262.67" fill="#0070E7"/>
<g opacity="0.3">
<path d="M305.31 264L372.31 209.55C373.686 208.431 375.406 207.82 377.18 207.82C378.954 207.82 380.674 208.431 382.05 209.55L447.13 262.67" fill="black"/>
</g>
<path d="M304.43 358C304.26 357.83 315.58 345.41 329.73 330.26C343.88 315.11 355.5 303 355.68 303.14C355.86 303.28 344.53 315.72 330.37 330.88C316.21 346.04 304.61 358.18 304.43 358Z" fill="#263238"/>
<path d="M451.29 359.07C451.11 359.24 440.03 347.07 426.54 332C413.05 316.93 402.26 304.5 402.44 304.34C402.62 304.18 413.7 316.34 427.2 331.42C440.7 346.5 451.47 358.91 451.29 359.07Z" fill="#263238"/>
<g opacity="0.5">
<path d="M447.14 262.66L376.04 319.7L305.31 263.98" fill="black"/>
</g>
<path d="M312.47 269.24L312.15 224.94L436.34 223.22L437.83 269.82L376.03 318.95L312.47 269.24Z" fill="#FAFAFA"/>
<path d="M312.47 269.24C312.47 269.24 312.88 269.53 313.65 270.12L317.03 272.73L329.89 282.73C340.97 291.38 356.89 303.73 376.16 318.81H375.9L437.67 269.64L437.58 269.85C437.29 260.96 436.99 251.63 436.69 242.14C436.48 235.75 436.28 229.43 436.08 223.24L436.34 223.49L312.16 225.13L312.32 224.96C312.38 238.89 312.44 249.96 312.47 257.54C312.47 261.33 312.47 264.25 312.47 266.24C312.47 267.24 312.47 267.97 312.47 268.49C312.47 269.01 312.47 269.26 312.47 269.26C312.47 269.26 312.47 269.01 312.47 268.51C312.47 268.01 312.47 267.25 312.47 266.28C312.47 264.28 312.41 261.38 312.37 257.6C312.3 249.99 312.19 238.92 312.06 224.96V224.8H312.22L436.33 223H436.59V223.26C436.79 229.45 436.99 235.76 437.2 242.15C437.5 251.64 437.8 260.97 438.08 269.86V269.99L437.98 270.07L376.14 319.17L376.01 319.28L375.88 319.17L329.66 282.9L316.9 272.84L313.57 270.2L312.47 269.24Z" fill="#263238"/>
<path d="M416.76 245.56C416.76 245.7 397.76 245.97 374.34 246.16C350.92 246.35 331.92 246.39 331.92 246.25C331.92 246.11 350.92 245.84 374.34 245.64C397.76 245.44 416.76 245.41 416.76 245.56Z" fill="#263238"/>
<path d="M416.78 258.07C416.78 258.21 397.78 258.49 374.37 258.68C350.96 258.87 331.95 258.91 331.95 258.76C331.95 258.61 350.95 258.35 374.37 258.16C397.79 257.97 416.78 257.93 416.78 258.07Z" fill="#263238"/>
<path d="M416.81 272.49C416.81 272.64 397.81 272.91 374.4 273.1C350.99 273.29 331.98 273.33 331.98 273.18C331.98 273.03 350.98 272.77 374.4 272.58C397.82 272.39 416.81 272.35 416.81 272.49Z" fill="#263238"/>
<path d="M416.84 286.91C416.84 287.06 398.73 287.32 376.38 287.5C354.03 287.68 335.91 287.72 335.91 287.57C335.91 287.42 354.02 287.16 376.38 286.98C398.74 286.8 416.84 286.77 416.84 286.91Z" fill="#263238"/>
<path d="M401 299.6C400.837 299.645 400.669 299.666 400.5 299.66L399.07 299.72L393.83 299.85L376.52 300.17C369.76 300.29 363.63 300.33 359.2 300.33H353.96H352.53C352.362 300.334 352.194 300.318 352.03 300.28C352.193 300.235 352.361 300.214 352.53 300.22L353.95 300.16L359.2 300.03L376.51 299.72C383.27 299.59 389.39 299.55 393.82 299.55H399.07H400.5C400.668 299.55 400.835 299.567 401 299.6Z" fill="#263238"/>
<path d="M385 311.8C382.008 312.069 379.003 312.163 376 312.08C372.998 312.175 369.993 312.095 367 311.84C369.992 311.576 372.997 311.483 376 311.56C379.002 311.471 382.007 311.551 385 311.8Z" fill="#263238"/>
<path d="M709 415.55C709 415.7 559.46 415.81 375 415.81C190.54 415.81 41 415.7 41 415.55C41 415.4 190.51 415.29 375 415.29C559.49 415.29 709 415.41 709 415.55Z" fill="#263238"/>
<path d="M401.76 222.83C401.9 222.83 401.96 223.41 401.89 224.1C401.82 224.79 401.65 225.33 401.51 225.32C401.37 225.31 401.31 224.73 401.38 224.04C401.45 223.35 401.61 222.81 401.76 222.83Z" fill="white"/>
<path d="M403.09 213.09C403.221 213.909 403.184 214.746 402.98 215.55C402.933 216.381 402.719 217.194 402.35 217.94C402.248 216.289 402.5 214.635 403.09 213.09Z" fill="white"/>
<path d="M405.05 203.45C405.132 204.28 405.04 205.118 404.78 205.91C404.678 206.735 404.409 207.532 403.99 208.25C403.91 207.423 404.005 206.588 404.27 205.8C404.364 204.971 404.629 204.171 405.05 203.45Z" fill="white"/>
<path d="M407.72 194C407.588 195.655 407.1 197.261 406.29 198.71C406.28 197.877 406.44 197.05 406.76 196.28C406.915 195.461 407.242 194.683 407.72 194Z" fill="white"/>
<path d="M411.15 184.78C411.09 185.611 410.862 186.42 410.48 187.16C410.253 187.962 409.861 188.708 409.33 189.35C409.395 188.53 409.623 187.731 410 187C410.221 186.187 410.613 185.43 411.15 184.78Z" fill="white"/>
<path d="M415.41 175.93C414.977 177.527 414.214 179.016 413.17 180.3C413.304 179.48 413.607 178.697 414.06 178C414.68 176.79 415.28 175.86 415.41 175.93Z" fill="white"/>
<path d="M420.55 167.55C420.32 168.351 419.928 169.096 419.4 169.74C418.68 170.88 417.99 171.74 417.87 171.67C418.07 170.86 418.442 170.103 418.96 169.45C419.72 168.32 420.43 167.47 420.55 167.55Z" fill="white"/>
<path d="M426.61 159.81C426.296 160.581 425.83 161.282 425.24 161.87C424.37 162.87 423.58 163.68 423.46 163.59C423.34 163.5 423.96 162.59 424.84 161.54C425.72 160.49 426.5 159.72 426.61 159.81Z" fill="white"/>
<path d="M433.53 152.84C433.63 152.95 432.91 153.79 431.93 154.72C430.95 155.65 430.07 156.32 429.93 156.22C429.79 156.12 430.54 155.28 431.53 154.34C432.52 153.4 433.44 152.73 433.53 152.84Z" fill="white"/>
<path d="M441.27 146.78C441.35 146.9 440.53 147.65 439.44 148.45C438.822 149.005 438.097 149.427 437.31 149.69C437.22 149.58 438.04 148.83 439.14 148.03C439.754 147.468 440.48 147.042 441.27 146.78Z" fill="white"/>
<path d="M449.75 141.81C448.489 142.888 447.013 143.686 445.42 144.15C445.35 144.02 446.26 143.4 447.42 142.75C448.12 142.273 448.915 141.953 449.75 141.81Z" fill="white"/>
<path d="M458.85 138.11C458.189 138.614 457.435 138.981 456.63 139.19C455.88 139.553 455.063 139.754 454.23 139.78C454.889 139.272 455.644 138.905 456.45 138.7C457.198 138.332 458.017 138.131 458.85 138.11Z" fill="white"/>
<path d="M468.41 135.88C467.672 136.256 466.866 136.481 466.04 136.54C465.249 136.792 464.415 136.877 463.59 136.79C465.094 136.084 466.752 135.771 468.41 135.88Z" fill="white"/>
<path d="M478.22 135.34C477.431 135.6 476.597 135.695 475.77 135.62C474.943 135.719 474.104 135.641 473.31 135.39C474.098 135.127 474.932 135.029 475.76 135.1C476.588 135.004 477.427 135.085 478.22 135.34Z" fill="white"/>
<path d="M488 136.49C487.176 136.613 486.335 136.566 485.53 136.35C484.697 136.304 483.882 136.082 483.14 135.7C484.797 135.621 486.453 135.89 488 136.49Z" fill="white"/>
<path d="M497.39 139.3C495.742 139.099 494.156 138.546 492.74 137.68C493.572 137.706 494.391 137.896 495.15 138.24C495.963 138.431 496.727 138.792 497.39 139.3Z" fill="white"/>
<path d="M506.14 143.76C505.327 143.581 504.559 143.241 503.88 142.76C503.121 142.419 502.44 141.926 501.88 141.31C502.695 141.483 503.464 141.823 504.14 142.31C505.32 143 506.22 143.64 506.14 143.76Z" fill="white"/>
<path d="M513.84 149.84C513.086 149.5 512.406 149.014 511.84 148.41C510.84 147.53 510.08 146.71 510.17 146.6C510.26 146.49 511.17 147.12 512.17 148.02C513.17 148.92 513.94 149.74 513.84 149.84Z" fill="white"/>
<path d="M518.7 155.44C518.58 155.52 518.15 155.15 517.7 154.61C517.25 154.07 517.03 153.56 517.14 153.46C517.25 153.36 517.68 153.74 518.14 154.29C518.6 154.84 518.82 155.35 518.7 155.44Z" fill="white"/>
<path d="M564.94 215.69C564.102 215.583 563.295 215.304 562.57 214.87C561.31 214.29 560.34 213.71 560.41 213.58C561.249 213.696 562.057 213.975 562.79 214.4C563.586 214.681 564.317 215.12 564.94 215.69Z" fill="white"/>
<path d="M574.38 219C572.703 218.85 571.075 218.352 569.6 217.54C571.278 217.686 572.907 218.183 574.38 219Z" fill="white"/>
<path d="M584.25 220.55C583.419 220.723 582.561 220.723 581.73 220.55C580.885 220.545 580.051 220.364 579.28 220.02C580.108 219.854 580.962 219.854 581.79 220.02C582.637 220.029 583.474 220.209 584.25 220.55Z" fill="white"/>
<path d="M594.23 220.24C593.445 220.553 592.605 220.703 591.76 220.68C590.925 220.835 590.066 220.812 589.24 220.61C590.03 220.301 590.872 220.148 591.72 220.16C592.553 220.012 593.408 220.04 594.23 220.24Z" fill="white"/>
<path d="M604.05 218.4C603.323 218.833 602.518 219.119 601.68 219.24C600.869 219.493 600.015 219.578 599.17 219.49C599.911 219.081 600.728 218.826 601.57 218.74C602.364 218.456 603.209 218.341 604.05 218.4Z" fill="white"/>
<path d="M613.33 214.71C613.4 214.84 612.43 215.41 611.17 216C610.442 216.432 609.631 216.704 608.79 216.8C610.142 215.797 611.688 215.085 613.33 214.71Z" fill="white"/>
<path d="M621.62 209.14C621.71 209.25 620.93 210.07 619.82 210.91C619.195 211.486 618.446 211.911 617.63 212.15C617.55 212.03 618.41 211.32 619.51 210.5C620.126 209.923 620.84 209.463 621.62 209.14Z" fill="white"/>
<path d="M628.42 201.84C628.148 202.649 627.693 203.385 627.09 203.99C626.2 205.06 625.34 205.8 625.24 205.7C625.14 205.6 625.82 204.7 626.69 203.7C627.56 202.7 628.3 201.76 628.42 201.84Z" fill="white"/>
<path d="M633.1 193C633.068 193.854 632.831 194.687 632.41 195.43C632.133 196.237 631.675 196.969 631.07 197.57C631.22 196.74 631.51 195.942 631.93 195.21C632.195 194.414 632.59 193.667 633.1 193Z" fill="white"/>
<path d="M635 183.26C635.24 184.079 635.277 184.943 635.11 185.78C635.109 186.635 634.896 187.477 634.49 188.23C634.388 187.397 634.422 186.552 634.59 185.73C634.589 184.89 634.728 184.055 635 183.26Z" fill="white"/>
<path d="M633.51 173.4C633.991 174.105 634.299 174.914 634.41 175.76C634.68 176.568 634.752 177.429 634.62 178.27C634.247 177.52 634.004 176.712 633.9 175.88C633.633 175.081 633.501 174.243 633.51 173.4Z" fill="white"/>
<path d="M629.16 164.44C629.27 164.35 630.03 165.21 630.73 166.44C631.229 167.128 631.552 167.928 631.67 168.77C631.54 168.84 630.96 167.88 630.28 166.7C629.785 166.013 629.407 165.25 629.16 164.44Z" fill="white"/>
<path d="M622.22 157.3C623.031 157.572 623.762 158.039 624.35 158.66C625.41 159.57 626.1 160.47 626 160.57C625.9 160.67 625 159.94 624 159.05C623 158.16 622.14 157.42 622.22 157.3Z" fill="white"/>
<path d="M613.15 153.24C614.005 153.16 614.866 153.301 615.65 153.65C616.483 153.842 617.256 154.237 617.9 154.8C617.067 154.711 616.253 154.488 615.49 154.14C614.668 153.962 613.879 153.658 613.15 153.24Z" fill="white"/>
<path d="M603.24 153.41C603.968 152.956 604.803 152.704 605.66 152.68C606.496 152.489 607.367 152.517 608.19 152.76C606.547 153.133 604.873 153.35 603.19 153.41H603.24Z" fill="white"/>
<path d="M594.62 158.23C594.51 158.14 595.2 157.23 596.33 156.36C596.964 155.777 597.746 155.38 598.59 155.21C598.66 155.35 597.72 155.96 596.59 156.78C595.46 157.6 594.73 158.33 594.62 158.23Z" fill="white"/>
<path d="M590.66 167.21C590.47 166.369 590.522 165.492 590.81 164.68C590.927 163.824 591.292 163.021 591.86 162.37C591.771 163.198 591.586 164.014 591.31 164.8C591.199 165.628 590.98 166.438 590.66 167.21Z" fill="white"/>
<path d="M592.61 176.9C592.018 176.28 591.6 175.514 591.4 174.68C591.035 173.901 590.889 173.036 590.98 172.18C591.39 172.911 591.697 173.695 591.89 174.51C592.245 175.268 592.487 176.073 592.61 176.9Z" fill="white"/>
<path d="M599.15 184.34C598.33 184.085 597.59 183.624 597 183C595.94 182.08 595.29 181.14 595.4 181.05C595.51 180.96 596.32 181.71 597.34 182.61C598.36 183.51 599.23 184.22 599.15 184.34Z" fill="white"/>
<path d="M608.23 188.41C607.377 188.456 606.527 188.295 605.75 187.94C604.915 187.753 604.141 187.357 603.5 186.79C604.334 186.879 605.147 187.102 605.91 187.45C606.732 187.635 607.517 187.96 608.23 188.41Z" fill="white"/>
<path d="M618.15 189.35C616.505 189.774 614.775 189.736 613.15 189.24C613.972 189.067 614.816 189.027 615.65 189.12C616.49 189.051 617.336 189.129 618.15 189.35Z" fill="white"/>
<path d="M628 187.53C626.529 188.374 624.856 188.803 623.16 188.77C623.897 188.369 624.7 188.102 625.53 187.98C626.323 187.695 627.157 187.543 628 187.53Z" fill="white"/>
<path d="M637 183.38C636.405 183.983 635.694 184.459 634.91 184.78C634.206 185.249 633.413 185.569 632.58 185.72C633.876 184.643 635.381 183.846 637 183.38Z" fill="white"/>
<path d="M645 177.42C645.1 177.53 644.31 178.33 643.24 179.21C642.637 179.806 641.924 180.278 641.14 180.6C641.05 180.48 641.85 179.68 642.91 178.81C643.511 178.217 644.221 177.745 645 177.42Z" fill="white"/>
<path d="M651.85 170.11C651.96 170.2 651.32 171.11 650.42 172.18C649.52 173.25 648.7 174.01 648.6 173.91C648.5 173.81 649.13 172.91 650.02 171.84C650.91 170.77 651.73 170 651.85 170.11Z" fill="white"/>
<path d="M657.34 161.77C657.148 162.595 656.787 163.371 656.28 164.05C655.56 165.24 654.89 166.14 654.77 166.05C654.964 165.225 655.324 164.449 655.83 163.77C656.54 162.6 657.21 161.7 657.34 161.77Z" fill="white"/>
<path d="M661.4 152.63C661.339 153.476 661.111 154.302 660.73 155.06C660.508 155.879 660.105 156.638 659.55 157.28C659.636 156.442 659.87 155.626 660.24 154.87C660.471 154.053 660.866 153.291 661.4 152.63Z" fill="white"/>
<path d="M664.19 143C664.241 143.843 664.115 144.688 663.82 145.48C663.69 146.318 663.39 147.121 662.94 147.84C663.011 146.157 663.437 144.507 664.19 143Z" fill="white"/>
<path d="M665.94 133.2C666.078 134.036 666.037 134.891 665.82 135.71C665.775 136.554 665.561 137.38 665.19 138.14C665.052 137.304 665.093 136.449 665.31 135.63C665.357 134.786 665.571 133.96 665.94 133.2Z" fill="white"/>
<path d="M666.86 123.24C667.092 124.914 666.966 126.618 666.49 128.24C666.302 127.413 666.278 126.556 666.42 125.72C666.398 124.872 666.548 124.029 666.86 123.24Z" fill="white"/>
<path d="M667.18 113.25C667.425 114.059 667.497 114.911 667.39 115.75C667.465 116.596 667.359 117.448 667.08 118.25C666.848 117.435 666.777 116.582 666.87 115.74C666.808 114.898 666.913 114.051 667.18 113.25Z" fill="white"/>
<path d="M667.11 103.25C667.378 104.054 667.48 104.905 667.41 105.75C667.51 106.59 667.432 107.442 667.18 108.25C666.913 107.445 666.811 106.595 666.88 105.75C666.792 104.91 666.87 104.06 667.11 103.25Z" fill="white"/>
<path d="M667 97.1C667.14 97.1 667.27 97.35 667.28 97.67C667.29 97.99 667.18 98.24 667.03 98.25C666.88 98.26 666.76 98 666.76 97.68C666.76 97.36 666.82 97.1 667 97.1Z" fill="white"/>
<path d="M688.872 67.4067L620.902 74.7906L625.879 120.611L693.85 113.227L688.872 67.4067Z" fill="#0070E7"/>
<path d="M625.85 120.66L620.85 74.82L688.85 67.44L693.85 113.29L625.85 120.66ZM620.93 74.84L625.93 120.61L693.85 113.23L688.85 67.46L620.93 74.84Z" fill="white"/>
<path d="M689.15 68C688.982 68.2442 688.791 68.4719 688.58 68.68L686.87 70.55L680.48 77.33L659.19 99.55L659.02 99.74L658.8 99.6L658.28 99.27L632 82.46L624 77.31L621.86 75.88C621.604 75.7222 621.359 75.545 621.13 75.35C621.41 75.4628 621.678 75.6035 621.93 75.77L624.13 77.1L632.13 82.1L658.54 98.76L659.06 99.09H658.67L680.17 77L686.7 70.36L688.49 68.58C688.692 68.3672 688.913 68.1731 689.15 68Z" fill="white"/>
<path d="M626.15 121.16C626.01 121.07 630.44 114.23 636.04 105.9C641.64 97.57 646.31 90.9 646.45 90.98C646.59 91.06 642.17 97.91 636.56 106.24C630.95 114.57 626.29 121.26 626.15 121.16Z" fill="white"/>
<path d="M669 88C669.13 87.88 674.86 93.57 681.8 100.7C688.74 107.83 694.27 113.7 694.15 113.83C694.03 113.96 688.3 108.27 681.35 101.13C674.4 93.99 668.86 88.07 669 88Z" fill="white"/>
<path d="M378.47 206.35C378.61 206.35 378.82 206.86 378.94 207.54C379.06 208.22 379.03 208.79 378.89 208.82C378.75 208.85 378.54 208.31 378.42 207.62C378.3 206.93 378.33 206.37 378.47 206.35Z" fill="white"/>
<path d="M376.87 196.59C377.246 197.338 377.468 198.154 377.52 198.99C377.736 199.798 377.784 200.642 377.66 201.47C377.276 200.725 377.055 199.907 377.01 199.07C376.794 198.262 376.746 197.418 376.87 196.59Z" fill="white"/>
<path d="M375.44 186.81C375.806 187.563 376.01 188.384 376.04 189.22C376.238 190.032 376.268 190.876 376.13 191.7C375.76 190.949 375.555 190.127 375.53 189.29C375.332 188.478 375.302 187.634 375.44 186.81Z" fill="white"/>
<path d="M374.32 177C374.655 177.767 374.832 178.593 374.84 179.43C375.016 180.247 375.016 181.093 374.84 181.91C374.506 181.143 374.332 180.316 374.33 179.48C374.154 178.663 374.151 177.818 374.32 177Z" fill="white"/>
<path d="M373.63 167.12C374.069 168.729 374.164 170.412 373.91 172.06C373.471 170.451 373.375 168.768 373.63 167.12Z" fill="white"/>
<path d="M373.53 157.23C373.877 158.879 373.877 160.581 373.53 162.23C373.271 161.434 373.186 160.592 373.28 159.76C373.182 158.909 373.267 158.046 373.53 157.23Z" fill="white"/>
<path d="M374.15 147.37C374.331 148.189 374.348 149.035 374.2 149.86C374.214 150.696 374.058 151.527 373.74 152.3C373.545 151.487 373.525 150.642 373.68 149.82C373.665 148.98 373.825 148.145 374.15 147.37Z" fill="white"/>
<path d="M375.63 137.6C375.752 138.429 375.694 139.275 375.46 140.08C375.399 140.916 375.164 141.73 374.77 142.47C374.72 140.805 375.013 139.147 375.63 137.6Z" fill="white"/>
<path d="M378.16 128.05C378.171 128.886 378.014 129.716 377.7 130.49C377.538 131.312 377.215 132.094 376.75 132.79C376.727 131.951 376.88 131.116 377.2 130.34C377.353 129.517 377.681 128.736 378.16 128.05Z" fill="white"/>
<path d="M381.85 118.88C381.763 119.714 381.505 120.521 381.09 121.25C380.83 122.046 380.411 122.78 379.86 123.41C380.204 121.777 380.886 120.235 381.86 118.88H381.85Z" fill="white"/>
<path d="M386.67 110.26C386.476 111.073 386.119 111.839 385.62 112.51C384.92 113.67 384.25 114.51 384.12 114.51C384.317 113.696 384.678 112.93 385.18 112.26C385.88 111.07 386.55 110.18 386.67 110.26Z" fill="white"/>
<path d="M392.6 102.35C392.71 102.45 392.11 103.35 391.26 104.44C390.41 105.53 389.62 106.29 389.5 106.2C389.806 105.42 390.265 104.709 390.85 104.11C391.71 103.05 392.5 102.26 392.6 102.35Z" fill="white"/>
<path d="M399.63 95.4C399.72 95.52 398.98 96.35 397.98 97.27C396.98 98.19 396.08 98.84 395.98 98.74C395.88 98.64 396.62 97.81 397.63 96.88C398.64 95.95 399.54 95.29 399.63 95.4Z" fill="white"/>
<path d="M407.71 89.72C407.78 89.85 406.91 90.54 405.76 91.27C405.104 91.7885 404.348 92.1663 403.54 92.38C403.46 92.27 404.33 91.57 405.48 90.83C406.143 90.3162 406.901 89.9389 407.71 89.72Z" fill="white"/>
<path d="M416.71 85.67C416.061 86.2002 415.308 86.5885 414.5 86.81C413.757 87.1927 412.944 87.4174 412.11 87.47C412.76 86.9418 413.513 86.5537 414.32 86.33C415.062 85.946 415.876 85.7212 416.71 85.67Z" fill="white"/>
<path d="M423.93 83.89C423.93 84.03 423.43 84.25 422.76 84.38C422.09 84.51 421.51 84.5 421.48 84.38C421.45 84.26 421.98 84.02 422.66 83.89C423.34 83.76 423.91 83.75 423.93 83.89Z" fill="white"/>
<path d="M370.736 46.3432L352.663 93.0809L422.001 119.891L440.073 73.1538L370.736 46.3432Z" fill="#0070E7"/>
<path d="M422 119.93L352.64 93.1L370.73 46.34L440.09 73.16L422 119.93ZM352.7 93.07L422 119.86L440.06 73.17L370.76 46.38L352.7 93.07Z" fill="white"/>
<path d="M440.08 73.81C439.8 73.9625 439.505 74.0865 439.2 74.18L436.61 75.1201L427.06 78.4801L395.38 89.3601L395.12 89.45L394.98 89.21L394.64 88.63L377.64 59.26L372.55 50.32L371.2 47.87C371.025 47.5919 370.877 47.2971 370.76 46.9901C370.967 47.2433 371.151 47.5143 371.31 47.8L372.78 50.19L378 59C382.44 66.5401 388.5 76.87 395.19 88.27L395.53 88.85L395.13 88.7L426.91 78L436.53 74.85L439.16 74.02C439.458 73.9171 439.767 73.8467 440.08 73.81Z" fill="white"/>
<path d="M352.67 93.73C352.58 93.57 360.27 89.18 369.85 83.93C379.43 78.68 387.26 74.55 387.35 74.71C387.44 74.87 379.75 79.26 370.17 84.52C360.59 89.78 352.76 93.89 352.67 93.73Z" fill="white"/>
<path d="M410.63 83C410.81 82.95 413.5 91.3 416.63 101.65C419.76 112 422.18 120.45 422 120.5C421.82 120.55 419.13 112.21 416 101.85C412.87 91.49 410.45 83.09 410.63 83Z" fill="white"/>
<path d="M349.35 217.29C349.49 217.29 349.56 217.87 349.51 218.56C349.46 219.25 349.29 219.8 349.15 219.79C349.01 219.78 348.93 219.21 348.99 218.52C349.05 217.83 349.21 217.28 349.35 217.29Z" fill="white"/>
<path d="M349.6 207.12C349.86 207.943 349.948 208.811 349.86 209.67C349.938 210.526 349.846 211.389 349.59 212.21C349.337 211.389 349.252 210.525 349.34 209.67C349.26 208.811 349.348 207.945 349.6 207.12Z" fill="white"/>
<path d="M348.91 197C349.405 198.641 349.565 200.366 349.38 202.07C349.043 201.277 348.876 200.422 348.89 199.56C348.73 198.714 348.737 197.844 348.91 197Z" fill="white"/>
<path d="M347.22 186.94C347.626 187.7 347.878 188.532 347.96 189.39C348.207 190.216 348.285 191.083 348.19 191.94C347.786 191.18 347.534 190.347 347.45 189.49C347.197 188.665 347.119 187.797 347.22 186.94Z" fill="white"/>
<path d="M344.45 177.15C345.294 178.643 345.822 180.294 346 182C345.513 181.292 345.173 180.492 345 179.65C344.649 178.863 344.462 178.012 344.45 177.15Z" fill="white"/>
<path d="M340.56 167.76C341.133 168.402 341.568 169.154 341.84 169.97C342.268 170.719 342.543 171.545 342.65 172.4C342.083 171.754 341.648 171.003 341.37 170.19C340.94 169.443 340.664 168.616 340.56 167.76Z" fill="white"/>
<path d="M335.51 158.93C335.63 158.85 336.35 159.75 337.11 160.93C337.618 161.629 337.985 162.421 338.19 163.26C338.06 163.33 337.38 162.41 336.66 161.2C336.13 160.527 335.739 159.756 335.51 158.93Z" fill="white"/>
<path d="M329.28 150.9C329.39 150.8 330.21 151.6 331.11 152.68C331.722 153.289 332.208 154.013 332.54 154.81C332.42 154.89 331.61 154.09 330.71 153.02C330.097 152.415 329.611 151.695 329.28 150.9Z" fill="white"/>
<path d="M322 143.82C322.09 143.71 323 144.39 324.06 145.33C325.12 146.27 325.87 147.13 325.77 147.23C324.99 146.868 324.29 146.354 323.71 145.72C322.65 144.78 321.88 143.93 322 143.82Z" fill="white"/>
<path d="M313.73 137.88C314.556 138.119 315.325 138.524 315.99 139.07C317.16 139.85 318.05 140.58 317.99 140.7C317.166 140.451 316.398 140.043 315.73 139.5C314.54 138.73 313.65 138 313.73 137.88Z" fill="white"/>
<path d="M304.67 133.26C305.525 133.37 306.348 133.652 307.09 134.09C307.903 134.372 308.651 134.814 309.29 135.39C308.435 135.28 307.612 134.998 306.87 134.56C306.059 134.275 305.311 133.833 304.67 133.26Z" fill="white"/>
<path d="M295 130.19C295.862 130.16 296.722 130.299 297.53 130.6C298.381 130.743 299.193 131.055 299.92 131.52C299.058 131.546 298.199 131.407 297.39 131.11C296.541 130.962 295.729 130.65 295 130.19Z" fill="white"/>
<path d="M284.89 128.9C286.588 128.615 288.33 128.755 289.96 129.31C288.259 129.447 286.547 129.309 284.89 128.9Z" fill="white"/>
<path d="M274.75 129.6C276.378 129.056 278.1 128.851 279.81 129C279.023 129.355 278.173 129.545 277.31 129.56C276.467 129.739 275.598 129.752 274.75 129.6Z" fill="white"/>
<path d="M264.93 132.22C265.637 131.73 266.437 131.39 267.28 131.22C268.069 130.876 268.92 130.699 269.78 130.7C269.07 131.185 268.272 131.525 267.43 131.7C266.638 132.033 265.789 132.21 264.93 132.22Z" fill="white"/>
<path d="M255.77 136.63C255.7 136.5 256.64 135.86 257.89 135.19C258.6 134.699 259.403 134.359 260.25 134.19C258.934 135.291 257.41 136.117 255.77 136.62V136.63Z" fill="white"/>
<path d="M247.65 142.73C247.55 142.63 248.35 141.81 249.43 140.9C250.039 140.288 250.763 139.802 251.56 139.47C251.64 139.59 250.84 140.41 249.77 141.3C249.169 141.917 248.447 142.404 247.65 142.73Z" fill="white"/>
<path d="M241 150.41C241.257 149.582 241.698 148.823 242.29 148.19C243.16 147.07 244.01 146.29 244.11 146.38C244.21 146.47 243.56 147.38 242.7 148.51C241.84 149.64 241.12 150.49 241 150.41Z" fill="white"/>
<path d="M237.29 157C237.16 156.94 237.29 156.39 237.6 155.76C237.91 155.13 238.25 154.68 238.38 154.76C238.51 154.84 238.38 155.38 238.07 156C237.76 156.62 237.42 157.07 237.29 157Z" fill="white"/>
<path d="M173.75 216C173.75 215.86 174.28 215.68 174.96 215.59C175.64 215.5 176.21 215.59 176.23 215.7C176.25 215.81 175.72 216.03 175.02 216.11C174.32 216.19 173.76 216.17 173.75 216Z" fill="white"/>
<path d="M163.85 214.9C164.691 214.891 165.528 215.016 166.33 215.27C167.167 215.357 167.985 215.58 168.75 215.93C167.054 216.091 165.348 215.743 163.85 214.93V214.9Z" fill="white"/>
<path d="M154.89 210.47C155.695 210.722 156.452 211.107 157.13 211.61C158.31 212.31 159.26 212.9 159.2 213.04C158.357 212.89 157.56 212.548 156.87 212.04C155.67 211.34 154.81 210.59 154.89 210.47Z" fill="white"/>
<path d="M147.45 203.79C147.56 203.7 148.38 204.46 149.35 205.44C150.32 206.42 151.07 207.25 150.98 207.36C150.89 207.47 149.98 206.8 148.98 205.81C147.98 204.82 147.34 203.89 147.45 203.79Z" fill="white"/>
<path d="M141.57 195.69C141.7 195.62 142.41 196.49 143.16 197.69C143.69 198.35 144.084 199.108 144.32 199.92C144.2 200.01 143.49 199.13 142.73 197.97C142.189 197.299 141.793 196.523 141.57 195.69Z" fill="white"/>
<path d="M137.25 186.66C137.801 187.304 138.216 188.052 138.47 188.86C138.872 189.608 139.126 190.426 139.22 191.27C138.664 190.628 138.245 189.88 137.99 189.07C137.586 188.324 137.334 187.505 137.25 186.66Z" fill="white"/>
<path d="M134.38 177.06C134.831 177.779 135.134 178.582 135.27 179.42C135.566 180.215 135.695 181.063 135.65 181.91C135.192 181.194 134.888 180.39 134.76 179.55C134.465 178.755 134.336 177.907 134.38 177.06Z" fill="white"/>
<path d="M132.64 167.19C133.006 167.955 133.22 168.784 133.27 169.63C133.48 170.453 133.521 171.311 133.39 172.15C133.015 171.388 132.8 170.558 132.76 169.71C132.544 168.888 132.503 168.029 132.64 167.19Z" fill="white"/>
<path d="M131.68 157.22C132.161 158.841 132.297 160.544 132.08 162.22C131.76 161.437 131.603 160.596 131.62 159.75C131.463 158.912 131.483 158.05 131.68 157.22Z" fill="white"/>
<path d="M131.26 149.71C131.41 149.71 131.55 150.26 131.58 150.95C131.61 151.64 131.52 152.2 131.38 152.21C131.24 152.22 131.09 151.66 131.06 150.97C131.03 150.28 131.12 149.72 131.26 149.71Z" fill="white"/>
<path d="M168.918 89.0777L85.7705 92.9988L88.4137 149.047L171.561 145.125L168.918 89.0777Z" fill="#0070E7"/>
<path d="M88.38 149.07L85.74 93L168.92 89.08L171.56 145.15L88.38 149.07ZM85.79 93L88.43 149L171.53 145.08L168.89 89.08L85.79 93Z" fill="white"/>
<path d="M169.21 89.74C168.99 90.0236 168.742 90.2849 168.47 90.52L166.25 92.66L158 100.43L130.46 125.9L130.23 126.11L129.98 125.93L129.38 125.49L98.65 103.11C94.79 100.25 91.65 97.92 89.39 96.26L86.9 94.36C86.5974 94.1552 86.316 93.9208 86.06 93.66C86.385 93.8282 86.696 94.0222 86.99 94.24L89.57 96L98.97 102.66L129.82 124.86L130.43 125.3H129.95L157.63 100L166.05 92.41L168.37 90.41C168.626 90.1579 168.907 89.9334 169.21 89.74Z" fill="white"/>
<path d="M88.7 149.71C88.54 149.58 94.43 141.6 101.86 131.89C109.29 122.18 115.45 114.41 115.61 114.53C115.77 114.65 109.89 122.64 102.46 132.35C95.03 142.06 88.87 149.83 88.7 149.71Z" fill="white"/>
<path d="M143.22 112.53C143.38 112.39 149.92 119.73 157.82 128.91C165.72 138.09 172.01 145.65 171.82 145.79C171.63 145.93 165.13 138.59 157.22 129.4C149.31 120.21 143.06 112.67 143.22 112.53Z" fill="white"/>
<path d="M234.57 288.16C234.65 287.6 234.518 287.03 234.2 286.562C233.882 286.094 233.401 285.761 232.85 285.63L230.62 285.78L222.62 283.01C222.278 282.919 221.919 282.905 221.571 282.97C221.222 283.034 220.892 283.176 220.605 283.383C220.318 283.591 220.081 283.86 219.91 284.171C219.74 284.481 219.641 284.826 219.62 285.18C219.62 287.47 218.62 293.71 216.81 291.75L216.67 291.62C214.04 288.69 211 287.27 209.83 287.44C209.579 287.489 209.348 287.609 209.163 287.785C208.979 287.962 208.848 288.187 208.787 288.435C208.726 288.683 208.738 288.943 208.82 289.185C208.901 289.427 209.051 289.64 209.25 289.8C209.385 289.942 209.549 290.055 209.73 290.13C209.81 290.13 209.91 290.23 209.99 290.27C211.096 291.074 212.118 291.989 213.04 293C213.873 293.878 214.55 294.893 215.04 296C215.57 297.24 215.99 298.32 216.32 299.25L216.44 306.58L213.26 340.85C213.26 340.85 192.16 318.69 192.65 318.48L193.88 353L206.66 363.57C209.027 365.537 211.908 366.784 214.963 367.161C218.017 367.538 221.115 367.03 223.89 365.698C226.664 364.366 228.997 362.265 230.612 359.645C232.227 357.025 233.056 353.997 233 350.92L232.27 306.61L232.79 300.8L234.57 288.16Z" fill="#FFBE9D"/>
<path d="M116.11 336.88L93 389.72L74.76 427.84L61.19 432.4C61.19 432.4 50.45 435.52 50.45 437.74C50.45 439.96 53.28 439.46 53.28 439.46C53.8 442.78 58.4 440.9 61.62 439.46C64.84 438.02 72 437.62 72 437.62C71.6257 437.875 71.3162 438.214 71.096 438.61C70.8758 439.006 70.751 439.447 70.7315 439.9C70.7121 440.352 70.7986 440.803 70.9841 441.216C71.1696 441.63 71.449 441.994 71.8 442.28C72.94 443.08 74.92 442.11 76.26 440.68C77.6 439.25 81.06 438.59 84.91 437.21C88.76 435.83 89.39 430.67 89.39 430.67L135.6 352.8L116.11 336.88Z" fill="#FFBE9D"/>
<path d="M192.75 356.07L198.56 363.74L211.15 335.81C211.15 335.81 198.93 320.9 194.46 314.65C189.99 308.4 186.71 307.37 186.71 307.37C186.71 307.37 178.59 305 174.54 305L154.48 306.2L134.11 315.09C129.107 317.274 124.845 320.862 121.84 325.42L102.66 356.23L129.82 367.84L138.93 420C140.67 427.81 142.2 435.18 149.41 438.78L199.78 390.37L193.88 381.07L192.75 356.07Z" fill="#0070E7"/>
<path d="M144.59 346.52C144.71 346.6 141.59 351.42 137.66 357.3C133.73 363.18 130.41 367.86 130.3 367.78C130.19 367.7 133.3 362.88 137.23 357C141.16 351.12 144.47 346.44 144.59 346.52Z" fill="#263238"/>
<path d="M186.82 396C186.396 396.303 185.948 396.571 185.48 396.8C184.61 397.28 183.33 397.96 181.74 398.8C178.55 400.45 174.13 402.66 169.18 404.99C164.23 407.32 159.71 409.33 156.41 410.73C154.76 411.43 153.41 411.99 152.49 412.36C152.015 412.572 151.523 412.746 151.02 412.88C151.461 412.603 151.927 412.365 152.41 412.17L156.26 410.4C159.52 408.91 164.02 406.85 168.96 404.52C173.9 402.19 178.35 400.03 181.57 398.52L185.39 396.68C185.846 396.413 186.325 396.185 186.82 396Z" fill="#263238"/>
<path d="M143 335.24C142.352 334.545 141.76 333.799 141.23 333.01C139.906 331.172 138.409 329.464 136.76 327.91C135.101 326.381 133.133 325.225 130.99 324.52C129.34 324 128.24 324.02 128.24 323.92C128.49 323.85 128.752 323.83 129.01 323.86C129.712 323.886 130.409 323.986 131.09 324.16C133.327 324.79 135.384 325.942 137.09 327.52C138.77 329.097 140.254 330.869 141.51 332.8C142.087 333.562 142.586 334.379 143 335.24Z" fill="#263238"/>
<path d="M184.42 360.61C184.445 360.796 184.445 360.984 184.42 361.17C184.42 361.53 184.42 362.06 184.42 362.75C184.303 364.692 184.032 366.621 183.61 368.52C182.265 374.835 179.46 380.748 175.419 385.784C171.378 390.82 166.214 394.839 160.34 397.52C158.574 398.325 156.748 398.994 154.88 399.52C154.22 399.72 153.69 399.83 153.34 399.91C153.165 399.966 152.983 399.999 152.8 400.01C152.8 400.01 153.52 399.76 154.8 399.33C156.632 398.72 158.422 397.991 160.16 397.15C165.929 394.407 171.002 390.394 174.999 385.412C178.996 380.429 181.814 374.606 183.24 368.38C183.692 366.499 184.026 364.592 184.24 362.67C184.33 361.37 184.38 360.61 184.42 360.61Z" fill="#263238"/>
<g opacity="0.3">
<path d="M133.34 388C133.25 387.5 139.8 353.64 139.8 353.64L129.92 368.47" fill="black"/>
</g>
<path d="M191.46 323.57C191.506 323.76 191.53 323.955 191.53 324.15C191.53 324.59 191.59 325.15 191.64 325.83C191.71 327.35 191.82 329.43 191.95 331.98C192.2 337.24 192.55 344.39 192.95 352.28C193.35 360.17 193.63 367.4 193.78 372.6C193.86 375.2 193.91 377.31 193.93 378.76V380.44C193.956 380.632 193.956 380.828 193.93 381.02C193.884 380.83 193.86 380.635 193.86 380.44C193.86 380 193.8 379.44 193.75 378.77C193.68 377.25 193.57 375.16 193.44 372.62C193.19 367.36 192.84 360.21 192.44 352.31C192.04 344.41 191.77 337.2 191.61 331.99C191.53 329.39 191.48 327.29 191.46 325.83V324.16C191.434 323.964 191.434 323.766 191.46 323.57Z" fill="#263238"/>
<g opacity="0.2">
<path d="M151.26 412.79C149.64 411.45 150.01 408.71 151.44 407.17C152.87 405.63 155 405 157 404.32C166.57 401.22 176.19 396.84 182.5 389C183.305 387.878 184.257 386.869 185.33 386C185.877 385.568 186.53 385.29 187.221 385.195C187.912 385.1 188.616 385.191 189.26 385.46C191.19 386.46 191.26 389.26 190.45 391.29C189.443 393.781 187.572 395.826 185.18 397.05" fill="black"/>
</g>
<g opacity="0.2">
<path d="M191.67 329.58L197.26 362.02L192.9 356.27L191.67 329.58Z" fill="black"/>
</g>
<path d="M244.85 414.79L235.4 447.21L275.67 459.21C276.58 455.29 258.04 441.38 258.04 441.38L265 420.82L244.85 414.79Z" fill="#0070E7"/>
<g opacity="0.6">
<path d="M246.11 435.9C245.688 435.9 245.28 436.056 244.967 436.339C244.653 436.621 244.454 437.01 244.41 437.43C244.398 437.852 244.548 438.263 244.828 438.579C245.109 438.895 245.499 439.092 245.92 439.13C246.368 439.125 246.798 438.955 247.128 438.652C247.459 438.349 247.666 437.936 247.71 437.49C247.679 437.047 247.477 436.633 247.147 436.337C246.817 436.04 246.384 435.883 245.94 435.9" fill="white"/>
</g>
<g opacity="0.6">
<path d="M235.4 447.21L236.48 443.98L274.69 456.66C274.69 456.66 276.25 457.97 275.69 459.17L235.4 447.21Z" fill="white"/>
</g>
<path d="M258.75 441.33C258.69 441.52 257.68 441.33 256.52 441.67C255.36 442.01 254.61 442.67 254.45 442.55C254.29 442.43 254.92 441.37 256.33 440.98C257.74 440.59 258.85 441.16 258.75 441.33Z" fill="#263238"/>
<path d="M262.46 444.33C262.46 444.54 261.46 444.62 260.58 445.25C259.7 445.88 259.21 446.71 259.02 446.64C258.83 446.57 259.02 445.42 260.18 444.64C261.34 443.86 262.51 444.14 262.46 444.33Z" fill="#263238"/>
<path d="M263.36 450.1C263.16 450.1 263.18 449.02 264.01 448.1C264.84 447.18 265.88 447.02 265.91 447.2C265.94 447.38 265.21 447.8 264.54 448.57C263.87 449.34 263.56 450.14 263.36 450.1Z" fill="#263238"/>
<path d="M259.81 436.48C259.67 436.63 258.81 436.09 257.72 435.84C256.63 435.59 255.61 435.68 255.56 435.48C255.51 435.28 256.56 434.83 257.88 435.14C259.2 435.45 260 436.35 259.81 436.48Z" fill="#263238"/>
<path d="M260.27 431.42C259.561 431.398 258.871 431.187 258.27 430.81C257.578 430.466 256.933 430.036 256.35 429.53C255.993 429.221 255.659 428.887 255.35 428.53C255.163 428.34 255.007 428.12 254.89 427.88C254.802 427.701 254.776 427.498 254.815 427.302C254.855 427.107 254.959 426.93 255.11 426.8C255.25 426.692 255.414 426.619 255.587 426.586C255.761 426.553 255.94 426.561 256.11 426.61C256.367 426.686 256.613 426.797 256.84 426.94C257.236 427.174 257.61 427.442 257.96 427.74C258.551 428.25 259.058 428.851 259.46 429.52C259.896 430.097 260.141 430.797 260.16 431.52C260.05 431.52 259.78 430.8 259.04 429.81C258.612 429.228 258.108 428.707 257.54 428.26C257.211 427.997 256.859 427.763 256.49 427.56C256.1 427.32 255.74 427.21 255.57 427.37C255.4 427.53 255.5 427.45 255.57 427.6C255.657 427.777 255.772 427.939 255.91 428.08C256.189 428.407 256.486 428.717 256.8 429.01C257.334 429.502 257.909 429.947 258.52 430.34C259.56 431 260.31 431.31 260.27 431.42Z" fill="#263238"/>
<path d="M259.93 431.62C259.718 430.933 259.736 430.196 259.98 429.52C260.161 428.76 260.476 428.039 260.91 427.39C261.162 427.001 261.457 426.643 261.79 426.32C261.977 426.084 262.221 425.901 262.5 425.789C262.779 425.677 263.082 425.639 263.38 425.68C263.556 425.74 263.712 425.847 263.83 425.99C263.948 426.133 264.025 426.306 264.05 426.49C264.086 426.755 264.086 427.025 264.05 427.29C263.986 427.761 263.851 428.22 263.65 428.65C263.309 429.369 262.802 429.996 262.17 430.48C261.07 431.29 260.17 431.28 260.17 431.21C260.17 431.14 260.93 430.92 261.83 430.09C262.351 429.619 262.761 429.039 263.03 428.39C263.192 428.014 263.296 427.617 263.34 427.21C263.41 426.76 263.34 426.37 263.18 426.37C263.02 426.37 262.54 426.53 262.27 426.82C261.972 427.111 261.698 427.426 261.45 427.76C261.028 428.343 260.691 428.982 260.45 429.66C260.06 430.82 260.05 431.62 259.93 431.62Z" fill="#263238"/>
<path d="M286.2 366.52C287.2 374 284.66 382.43 281.95 389.52L264.29 431L244.74 428C244.74 428 240.67 432.54 235.46 434.28C233.13 435.05 225.46 436.56 219.15 432.02C219.15 432.02 210.22 444.46 196.15 448.22C182.08 451.98 160.83 454.06 150.53 437.62L199.53 390.38C200.53 390.62 241.76 362.82 264.03 356.49C264.07 356.49 284.32 352.77 286.2 366.52Z" fill="#263238"/>
<path d="M243.29 427.84C243.29 427.84 243.37 427.78 243.55 427.68L244.35 427.26C245.06 426.88 246.1 426.35 247.42 425.62C249.032 424.747 250.594 423.785 252.1 422.74C254.095 421.372 255.877 419.717 257.39 417.83C259.199 415.523 260.38 412.788 260.82 409.89C261.319 406.56 261.177 403.166 260.4 399.89C259.737 396.233 257.834 392.917 255.01 390.5C251.803 388.15 247.98 386.787 244.01 386.58C241.996 386.416 239.971 386.433 237.96 386.63C236.004 386.837 234.063 387.171 232.15 387.63C228.541 388.561 225.013 389.781 221.6 391.28C215.07 394.14 209.4 397.22 204.42 399.35C200.523 401.122 196.451 402.479 192.27 403.4C191.53 403.57 190.86 403.68 190.27 403.76C189.68 403.84 189.21 403.93 188.81 403.96L187.91 404.05H187.6L187.91 403.98L188.8 403.85C189.19 403.79 189.68 403.72 190.25 403.6C190.82 403.48 191.48 403.38 192.25 403.2C196.379 402.2 200.399 400.794 204.25 399C209.19 396.84 214.84 393.73 221.39 390.83C224.823 389.31 228.375 388.072 232.01 387.13C233.943 386.671 235.904 386.337 237.88 386.13C239.925 385.933 241.983 385.916 244.03 386.08C248.12 386.287 252.057 387.696 255.35 390.13C256.865 391.35 258.114 392.868 259.02 394.59C259.879 396.236 260.508 397.993 260.89 399.81C261.659 403.145 261.788 406.596 261.27 409.98C260.793 412.938 259.563 415.724 257.7 418.07C256.151 419.974 254.324 421.632 252.28 422.99C250.754 424.018 249.171 424.959 247.54 425.81C246.2 426.51 245.14 427.02 244.42 427.36L243.59 427.74C243.495 427.786 243.394 427.819 243.29 427.84Z" fill="#455A64"/>
<path d="M255.55 373.35C254.337 375.671 252.967 377.906 251.45 380.04C250.08 382.269 248.567 384.407 246.92 386.44C248.138 384.122 249.507 381.887 251.02 379.75C252.39 377.521 253.903 375.383 255.55 373.35Z" fill="#455A64"/>
<path d="M241.45 424.54C240.284 424.909 239.099 425.216 237.9 425.46C235.71 426 232.7 426.83 229.44 427.97C226.18 429.11 223.31 430.34 221.26 431.28C219.21 432.22 217.95 432.85 217.91 432.78C218.16 432.564 218.435 432.379 218.73 432.23C219.28 431.9 220.09 431.46 221.1 430.95C226.396 428.282 232.016 426.315 237.82 425.1C238.93 424.87 239.82 424.71 240.47 424.63C240.792 424.56 241.121 424.53 241.45 424.54Z" fill="#455A64"/>
<path d="M263.94 428.28C263.85 428.28 263.62 427.4 262.79 426.18C261.733 424.574 260.161 423.376 258.333 422.781C256.505 422.187 254.529 422.233 252.73 422.91C251.34 423.41 250.61 424.02 250.55 423.91C250.49 423.8 250.69 423.71 251.03 423.44C251.51 423.075 252.034 422.772 252.59 422.54C254.462 421.73 256.565 421.635 258.502 422.273C260.44 422.911 262.075 424.237 263.1 426C263.415 426.516 263.66 427.07 263.83 427.65C264 428 264 428.28 263.94 428.28Z" fill="#455A64"/>
<path d="M179.36 412.79C179.502 413.082 179.59 413.397 179.62 413.72C179.77 414.589 179.843 415.469 179.84 416.35C179.843 419.293 179.048 422.182 177.54 424.71C176.004 427.244 173.636 429.167 170.84 430.15C170.001 430.436 169.126 430.604 168.24 430.65C167.91 430.713 167.57 430.713 167.24 430.65C168.413 430.493 169.568 430.225 170.69 429.85C173.349 428.809 175.591 426.922 177.07 424.48C178.525 422.027 179.343 419.25 179.45 416.4C179.57 414.15 179.27 412.8 179.36 412.79Z" fill="#455A64"/>
<path d="M157.31 435.22C157.2 435.31 156.68 434.86 156.19 434.22C155.7 433.58 155.44 432.89 155.57 432.82C155.7 432.75 156.14 433.25 156.62 433.91C157.1 434.57 157.42 435.13 157.31 435.22Z" fill="#455A64"/>
<path d="M161.42 439.57C161.33 439.68 160.77 439.29 160.17 438.71C159.57 438.13 159.17 437.58 159.27 437.49C159.37 437.4 159.94 437.77 160.53 438.34C161.12 438.91 161.52 439.46 161.42 439.57Z" fill="#455A64"/>
<path d="M166.28 443.08C166.21 443.2 165.58 442.94 164.88 442.48C164.18 442.02 163.68 441.56 163.76 441.48C163.84 441.4 164.48 441.64 165.16 442.08C165.84 442.52 166.35 443 166.28 443.08Z" fill="#455A64"/>
<path d="M171.78 445.44C171.78 445.58 171.07 445.44 170.28 445.18C169.49 444.92 168.9 444.56 168.96 444.42C169.02 444.28 169.69 444.42 170.45 444.69C171.21 444.96 171.82 445.3 171.78 445.44Z" fill="#455A64"/>
<path d="M177.69 446.37C177.69 446.51 177.01 446.57 176.17 446.49C175.33 446.41 174.68 446.24 174.7 446.1C174.72 445.96 175.41 445.9 176.22 445.98C177.03 446.06 177.69 446.23 177.69 446.37Z" fill="#455A64"/>
<path d="M183.67 446.05C183.67 446.19 183.02 446.35 182.19 446.41C181.817 446.441 181.443 446.441 181.07 446.41C180.82 446.41 180.67 446.35 180.66 446.28C180.65 446.21 180.79 446.14 181.03 446.07C181.391 445.985 181.759 445.931 182.13 445.91C183 445.83 183.65 445.9 183.67 446.05Z" fill="#455A64"/>
<path d="M189.56 445C189.56 445.14 188.97 445.39 188.15 445.57C187.33 445.75 186.66 445.77 186.64 445.63C186.62 445.49 187.24 445.23 188.05 445.06C188.86 444.89 189.53 444.84 189.56 445Z" fill="#455A64"/>
<path d="M195.3 443.23C195.3 443.37 194.75 443.69 193.96 443.96C193.17 444.23 192.49 444.32 192.45 444.19C192.41 444.06 193.01 443.73 193.79 443.46C194.57 443.19 195.25 443.1 195.3 443.23Z" fill="#455A64"/>
<path d="M200.81 440.89C200.88 441.02 200.31 441.41 199.56 441.75C198.81 442.09 198.14 442.27 198.08 442.14C198.02 442.01 198.59 441.62 199.34 441.28C200.09 440.94 200.75 440.76 200.81 440.89Z" fill="#455A64"/>
<path d="M206.07 438C206.14 438.12 205.62 438.56 204.9 439C204.18 439.44 203.54 439.65 203.48 439.53C203.42 439.41 203.93 438.96 204.64 438.53C205.35 438.1 206 437.89 206.07 438Z" fill="#455A64"/>
<path d="M211 434.63C211.09 434.75 210.61 435.23 209.93 435.72C209.25 436.21 208.64 436.5 208.56 436.38C208.48 436.26 208.96 435.77 209.63 435.29C210.3 434.81 210.93 434.52 211 434.63Z" fill="#455A64"/>
<path d="M215.64 430.81C215.74 430.92 215.3 431.45 214.64 431.99C213.98 432.53 213.42 432.89 213.33 432.78C213.24 432.67 213.67 432.14 214.33 431.6C214.99 431.06 215.54 430.71 215.64 430.81Z" fill="#455A64"/>
<path d="M220 426.69C220.1 426.8 219.69 427.35 219.09 427.91C218.49 428.47 217.91 428.85 217.82 428.75C217.73 428.65 218.12 428.11 218.73 427.53C219.34 426.95 219.91 426.59 220 426.69Z" fill="#455A64"/>
<path d="M224.74 423C224.82 423.12 224.35 423.61 223.68 424.09C223.01 424.57 222.4 424.87 222.31 424.76C222.22 424.65 222.7 424.16 223.37 423.67C224.04 423.18 224.66 422.89 224.74 423Z" fill="#455A64"/>
<path d="M230 420.11C230.06 420.24 229.5 420.64 228.77 421.01C228.04 421.38 227.38 421.57 227.31 421.44C227.24 421.31 227.79 420.91 228.54 420.54C229.29 420.17 229.94 420 230 420.11Z" fill="#455A64"/>
<path d="M235.72 418.33C235.72 418.47 235.12 418.75 234.33 418.94C233.54 419.13 232.85 419.19 232.81 419.06C232.77 418.93 233.39 418.64 234.2 418.44C235.01 418.24 235.7 418.19 235.72 418.33Z" fill="#455A64"/>
<path d="M241.7 418C241.7 418.15 241.01 418.2 240.19 418.18C239.37 418.16 238.71 418.09 238.7 417.95C238.69 417.81 239.36 417.65 240.2 417.66C241.04 417.67 241.71 417.88 241.7 418Z" fill="#455A64"/>
<path d="M247.48 419.54C247.41 419.67 246.77 419.48 246.01 419.21C245.25 418.94 244.62 418.67 244.65 418.53C244.68 418.39 245.38 418.43 246.18 418.72C246.98 419.01 247.54 419.41 247.48 419.54Z" fill="#455A64"/>
<path d="M246.21 423.89C246.12 423.77 246.57 423.28 247.1 422.68C247.63 422.08 248.1 421.58 248.19 421.68C248.28 421.78 248.07 422.41 247.49 423.05C246.91 423.69 246.3 424 246.21 423.89Z" fill="#455A64"/>
<path d="M240.92 426.64C240.92 426.5 241.45 426.14 242.2 425.83C242.95 425.52 243.62 425.37 243.69 425.5C243.76 425.63 243.18 425.99 242.4 426.31C241.62 426.63 241 426.78 240.92 426.64Z" fill="#455A64"/>
<path d="M235.2 428.48C235.2 428.34 235.75 428.02 236.54 427.75C237.33 427.48 238 427.38 238.05 427.52C238.1 427.66 237.49 427.98 236.71 428.24C235.93 428.5 235.25 428.61 235.2 428.48Z" fill="#455A64"/>
<path d="M229.6 430.61C229.54 430.48 230.12 430.13 230.9 429.82C231.68 429.51 232.34 429.38 232.39 429.51C232.44 429.64 231.86 430 231.09 430.31C230.32 430.62 229.65 430.75 229.6 430.61Z" fill="#455A64"/>
<path d="M224.07 433C224.01 432.87 224.58 432.49 225.34 432.17C226.1 431.85 226.77 431.68 226.82 431.81C226.87 431.94 226.31 432.32 225.55 432.64C224.79 432.96 224.12 433.08 224.07 433Z" fill="#455A64"/>
<path d="M212.89 261.47C212.89 261.47 219.43 259.47 228.12 249.82C236.81 240.17 240.31 227.82 241.46 227.82C242.61 227.82 247.46 225.1 258.46 245.08C269.46 265.06 266.12 270.15 264.23 270.25C262.34 270.35 249.23 267.73 241.23 269.25C233.23 270.77 223.23 275.71 223.23 275.71L212.89 261.47Z" fill="#455A64"/>
<path d="M199.6 273.8L202.19 277.95L203.35 279.8C204.117 281.028 205.325 281.914 206.726 282.277C208.127 282.64 209.614 282.451 210.88 281.75L224.76 275.75L215.05 257.42L201.37 266C200.741 266.395 200.196 266.911 199.767 267.517C199.337 268.123 199.032 268.808 198.867 269.533C198.703 270.257 198.683 271.007 198.809 271.739C198.934 272.472 199.203 273.172 199.6 273.8Z" fill="#263238"/>
<path d="M208.33 280.1L213.54 288.66L215.76 287.86L231.49 298.86L235 290.4C235 290.4 226 287.27 224.1 284.27C222.2 281.27 224.1 280.42 224.1 280.42L219.63 276L208.33 280.1Z" fill="#263238"/>
<path d="M257.75 245.52C263.64 256.35 266.49 266.18 264.11 267.52C261.73 268.86 255.03 261.09 249.11 250.26C243.19 239.43 240.37 229.6 242.75 228.26C245.13 226.92 251.85 234.68 257.75 245.52Z" fill="#263238"/>
<path d="M198.84 280.12L202.62 278.62L199.89 274.26L197.13 276.27L198.84 280.12Z" fill="#455A64"/>
<path d="M221.16 277.54L211.27 284.93L209.79 282.49L221.16 277.54Z" fill="#455A64"/>
<path d="M199.89 274.26L202.62 278.62L201.84 278.93L199.56 274.5L199.89 274.26Z" fill="#455A64"/>
<path d="M202.63 275.11C204.091 274.596 205.493 273.925 206.81 273.11C208.207 272.444 209.528 271.629 210.75 270.68C209.29 271.196 207.888 271.867 206.57 272.68C205.173 273.346 203.852 274.161 202.63 275.11Z" fill="#455A64"/>
<path d="M201.24 272.49C202.567 271.995 203.832 271.347 205.01 270.56C206.271 269.908 207.455 269.116 208.54 268.2C205.946 269.336 203.495 270.776 201.24 272.49Z" fill="#455A64"/>
<path d="M204.34 277.84C204.756 277.796 205.159 277.674 205.53 277.48L206.78 276.96C207.24 276.75 207.72 276.47 208.23 276.19C209.498 275.567 210.681 274.784 211.75 273.86C210.435 274.359 209.175 274.992 207.99 275.75C207.48 276.03 206.99 276.33 206.57 276.55C206.15 276.77 205.72 276.98 205.38 277.16C204.72 277.52 204.31 277.77 204.34 277.84Z" fill="#455A64"/>
<path d="M247.24 243.79C247.24 243.79 252.76 239.79 256.5 247.35C260.24 254.91 254.26 256.66 254.26 256.66C251.325 252.722 248.962 248.389 247.24 243.79Z" fill="#455A64"/>
<path d="M240.41 234.94C240.469 235.443 240.579 235.939 240.74 236.42C241 237.36 241.36 238.72 241.86 240.42C242.16 241.24 242.5 242.13 242.86 243.09L243.42 244.58C243.52 244.83 243.61 245.09 243.71 245.36C243.81 245.63 243.95 245.87 244.07 246.13L245.63 249.4C245.76 249.69 245.9 249.97 246.04 250.26C246.18 250.55 246.35 250.82 246.51 251.1L247.51 252.81L248.51 254.52C248.68 254.79 248.83 255.08 249.01 255.34C249.19 255.6 249.38 255.87 249.55 256.13L251.63 259.13C251.8 259.36 251.95 259.6 252.12 259.82L252.66 260.47L253.66 261.69L255.49 263.89C256.7 265.15 257.7 266.13 258.39 266.82C258.731 267.188 259.106 267.523 259.51 267.82C259.205 267.413 258.871 267.029 258.51 266.67L255.73 263.67L254 261.38L253 260.15L252.48 259.5C252.31 259.28 252.16 259.04 252 258.81L250 255.81L249.47 255.03C249.28 254.77 249.14 254.48 248.97 254.21L247.97 252.51C247.64 251.94 247.31 251.37 246.97 250.82C246.82 250.54 246.64 250.27 246.5 249.98C246.36 249.69 246.23 249.41 246.09 249.13L244.52 245.9C244.4 245.64 244.26 245.39 244.16 245.13C244.06 244.87 243.95 244.61 243.85 244.36C243.65 243.85 243.46 243.36 243.27 242.89L242.22 240.25C241.69 238.62 241.27 237.25 240.96 236.34C240.811 235.86 240.628 235.393 240.41 234.94Z" fill="#263238"/>
<path d="M225.54 280.44C225.964 280.561 226.324 280.844 226.542 281.227C226.761 281.61 226.821 282.063 226.71 282.49C226.28 284.19 225.58 286.86 225.02 288.49C224.864 289.026 224.61 289.528 224.27 289.97C224.104 290.21 223.867 290.393 223.592 290.492C223.318 290.591 223.019 290.601 222.738 290.522C222.456 290.442 222.207 290.277 222.025 290.049C221.842 289.821 221.736 289.542 221.72 289.25C221.655 288.666 221.706 288.074 221.87 287.51C222.22 285.92 222.87 283.51 223.43 281.6C223.491 281.384 223.594 281.183 223.734 281.008C223.873 280.832 224.046 280.686 224.242 280.578C224.439 280.47 224.654 280.403 224.877 280.379C225.1 280.355 225.325 280.376 225.54 280.44Z" fill="#FFBE9D"/>
<path d="M228.25 283.2C228.674 283.322 229.034 283.604 229.252 283.987C229.471 284.37 229.531 284.823 229.42 285.25C228.99 286.95 228.29 289.62 227.72 291.25C227.568 291.787 227.314 292.29 226.97 292.73C226.798 292.949 226.569 293.117 226.308 293.216C226.047 293.315 225.764 293.34 225.49 293.29C225.21 293.196 224.962 293.026 224.774 292.798C224.587 292.569 224.467 292.293 224.43 292C224.367 291.416 224.414 290.826 224.57 290.26C224.93 288.68 225.57 286.26 226.13 284.35C226.258 283.915 226.553 283.549 226.95 283.331C227.347 283.114 227.815 283.063 228.25 283.19V283.2Z" fill="#FFBE9D"/>
<path d="M230.86 284.86C231.223 284.972 231.53 285.219 231.716 285.55C231.902 285.881 231.954 286.272 231.86 286.64C231.49 288.11 230.86 290.42 230.39 291.83C230.257 292.297 230.037 292.735 229.74 293.12C229.596 293.327 229.39 293.483 229.153 293.567C228.915 293.651 228.658 293.659 228.415 293.59C228.173 293.521 227.958 293.377 227.802 293.18C227.645 292.983 227.553 292.742 227.54 292.49C227.48 291.984 227.521 291.471 227.66 290.98C227.97 289.61 228.53 287.55 229.01 285.86C229.121 285.486 229.376 285.17 229.719 284.983C230.062 284.796 230.465 284.751 230.84 284.86H230.86Z" fill="#FFBE9D"/>
<path d="M233.83 285.19C234.196 285.302 234.504 285.55 234.69 285.884C234.877 286.217 234.927 286.61 234.83 286.98C234.46 288.46 233.83 290.78 233.35 292.2C233.219 292.668 232.998 293.106 232.7 293.49C232.557 293.701 232.351 293.861 232.112 293.948C231.873 294.034 231.612 294.044 231.367 293.974C231.122 293.904 230.906 293.759 230.748 293.559C230.591 293.359 230.5 293.114 230.49 292.86C230.43 292.35 230.471 291.834 230.61 291.34C230.92 289.97 231.48 287.89 231.97 286.2C232.025 286.013 232.116 285.84 232.239 285.688C232.361 285.537 232.512 285.412 232.683 285.319C232.854 285.226 233.041 285.167 233.235 285.147C233.428 285.127 233.624 285.145 233.81 285.2L233.83 285.19Z" fill="#FFBE9D"/>
<path d="M224.6 290C224.672 288.901 224.918 287.821 225.33 286.8C225.582 285.725 226 284.696 226.57 283.75C226.498 284.85 226.248 285.93 225.83 286.95C225.579 288.024 225.164 289.053 224.6 290Z" fill="#EB996E"/>
<path d="M230.23 292.27C230.685 290.134 231.311 288.037 232.1 286C231.985 288.212 231.344 290.365 230.23 292.28V292.27Z" fill="#EB996E"/>
<path d="M227.44 291.91C227.897 289.767 228.522 287.664 229.31 285.62C229.197 287.836 228.556 289.992 227.44 291.91Z" fill="#EB996E"/>
<path d="M278.25 207.35C278.36 207.43 274.25 213 269.09 219.78C263.93 226.56 259.63 231.99 259.52 231.9C259.41 231.81 263.52 226.25 268.67 219.47C273.82 212.69 278.13 207.26 278.25 207.35Z" fill="#263238"/>
<path d="M305.08 223.22C305.14 223.35 296.52 227.48 285.82 232.44C275.12 237.4 266.41 241.32 266.35 241.19C266.29 241.06 274.91 236.93 285.6 231.97C296.29 227.01 305 223.09 305.08 223.22Z" fill="#263238"/>
<path d="M301.08 256.24C301.08 256.38 294.92 255.91 287.36 255.18C279.8 254.45 273.67 253.74 273.68 253.6C273.69 253.46 279.84 253.93 287.41 254.66C294.98 255.39 301.1 256.1 301.08 256.24Z" fill="#263238"/>
<path d="M143.42 274.76L150.21 313.36C150.802 316.59 152.622 319.465 155.289 321.381C157.955 323.298 161.26 324.108 164.51 323.64C166.178 323.425 167.786 322.878 169.238 322.03C170.691 321.183 171.958 320.052 172.966 318.705C173.973 317.359 174.699 315.823 175.102 314.19C175.505 312.558 175.575 310.861 175.31 309.2L174.21 302.56C174.21 302.56 183.71 299.98 182.72 290.44C182.24 285.84 180.48 276.44 178.78 267.98C177.817 263.388 175.118 259.345 171.247 256.693C167.375 254.042 162.63 252.988 158 253.75C155.643 254.131 153.388 254.984 151.368 256.256C149.349 257.529 147.606 259.195 146.245 261.157C144.884 263.118 143.933 265.333 143.447 267.671C142.962 270.008 142.953 272.419 143.42 274.76Z" fill="#FFBE9D"/>
<path d="M174.23 302.58C169.784 303.163 165.264 302.429 161.23 300.47C161.23 300.47 165 307 174.54 305L174.23 302.58Z" fill="#EB996E"/>
<path d="M176.71 274.42C176.753 274.776 176.654 275.135 176.435 275.419C176.217 275.703 175.895 275.89 175.54 275.94C175.368 275.975 175.19 275.975 175.018 275.94C174.846 275.905 174.683 275.837 174.537 275.738C174.392 275.639 174.268 275.512 174.172 275.365C174.076 275.218 174.011 275.053 173.98 274.88C173.934 274.522 174.032 274.161 174.251 273.875C174.47 273.588 174.793 273.4 175.15 273.35C175.323 273.315 175.501 273.316 175.674 273.351C175.847 273.386 176.01 273.456 176.156 273.556C176.301 273.656 176.425 273.783 176.52 273.932C176.616 274.08 176.68 274.246 176.71 274.42Z" fill="#263238"/>
<path d="M177 272.11C176.85 272.31 175.71 271.66 174.23 271.84C172.75 272.02 171.74 272.84 171.56 272.7C171.38 272.56 171.56 272.29 172.04 271.9C172.636 271.39 173.371 271.07 174.15 270.98C174.926 270.889 175.71 271.046 176.39 271.43C176.91 271.72 177.11 272 177 272.11Z" fill="#263238"/>
<path d="M162.74 276.1C162.783 276.457 162.685 276.817 162.466 277.103C162.248 277.389 161.926 277.578 161.57 277.63C161.397 277.665 161.218 277.664 161.044 277.629C160.871 277.594 160.706 277.524 160.56 277.425C160.414 277.325 160.289 277.197 160.193 277.049C160.097 276.9 160.031 276.734 160 276.56C159.957 276.204 160.056 275.845 160.275 275.561C160.493 275.277 160.815 275.09 161.17 275.04C161.343 275.005 161.521 275.005 161.694 275.04C161.866 275.074 162.031 275.143 162.177 275.242C162.323 275.34 162.448 275.467 162.545 275.614C162.641 275.762 162.708 275.927 162.74 276.1Z" fill="#263238"/>
<path d="M162.67 274C162.52 274.19 161.39 273.55 159.9 273.72C158.41 273.89 157.41 274.72 157.23 274.59C157.05 274.46 157.28 274.18 157.72 273.78C158.313 273.266 159.05 272.948 159.83 272.87C160.601 272.782 161.38 272.936 162.06 273.31C162.56 273.64 162.75 274 162.67 274Z" fill="#263238"/>
<path d="M169.33 285.16C170.09 284.834 170.885 284.599 171.7 284.46C172.07 284.38 172.42 284.26 172.46 284C172.443 283.609 172.307 283.232 172.07 282.92L170.62 280.2C168.62 276.33 167.07 273.12 167.23 273.04C167.39 272.96 169.17 276.04 171.23 279.92C171.72 280.87 172.23 281.78 172.63 282.66C172.925 283.079 173.056 283.591 173 284.1C172.961 284.24 172.89 284.368 172.793 284.476C172.696 284.583 172.575 284.667 172.44 284.72C172.238 284.8 172.026 284.854 171.81 284.88C170.998 285.076 170.165 285.17 169.33 285.16Z" fill="#263238"/>
<path d="M165.08 286.67C165.32 286.67 165.51 288.21 167.02 289.19C168.53 290.17 170.23 289.79 170.26 290.01C170.29 290.23 169.92 290.36 169.19 290.46C168.249 290.583 167.294 290.374 166.49 289.87C165.726 289.385 165.18 288.621 164.97 287.74C164.83 287.08 165 286.67 165.08 286.67Z" fill="#263238"/>
<path d="M162.39 269.14C162.29 269.55 160.78 269.53 159.06 269.93C157.34 270.33 155.99 270.93 155.72 270.64C155.59 270.48 155.79 270.07 156.32 269.64C157.03 269.086 157.854 268.697 158.732 268.5C159.61 268.303 160.522 268.303 161.4 268.5C162.07 268.66 162.43 268.94 162.39 269.14Z" fill="#263238"/>
<path d="M176.21 268.82C175.99 269.18 174.92 268.95 173.69 269.07C172.46 269.19 171.44 269.55 171.16 269.23C171.04 269.08 171.16 268.72 171.58 268.36C172.147 267.895 172.848 267.622 173.58 267.58C174.305 267.511 175.034 267.664 175.67 268.02C176.12 268.32 176.3 268.64 176.21 268.82Z" fill="#263238"/>
<path d="M178.83 251.68C178.187 251.192 177.391 250.951 176.585 251C175.779 251.05 175.018 251.387 174.44 251.95C174.83 251.299 174.96 250.525 174.802 249.783C174.644 249.04 174.211 248.386 173.59 247.95C172.954 247.528 172.231 247.253 171.476 247.144C170.72 247.035 169.95 247.095 169.22 247.32C167.762 247.772 166.382 248.447 165.13 249.32C165.184 249.023 165.149 248.717 165.029 248.439C164.91 248.162 164.712 247.926 164.46 247.76C163.94 247.441 163.349 247.255 162.74 247.22C160.231 247.057 157.728 247.62 155.53 248.84C153.176 250.147 150.943 251.663 148.86 253.37C146.531 255.246 144.477 257.441 142.76 259.89L142.68 259.96C141.27 261.22 140.08 265.02 140.29 266.88C141.08 273.75 143.36 277.72 144.64 284.22C144.682 284.662 144.852 285.083 145.13 285.43C145.92 286.25 147.34 285.55 148.13 284.69C149.831 282.477 150.726 279.75 150.67 276.96C150.76 274.2 150.36 271.45 150.43 268.69V268.49C150.449 267.786 150.516 267.085 150.63 266.39C150.75 265.94 151.92 262 155.71 261.39C159.71 260.71 167.66 264.61 171.59 263.99C175.52 263.37 175.73 260.6 175.73 260.6L178.04 265.3C178.571 263.39 178.697 261.391 178.41 259.43C179.409 258.516 180.107 257.32 180.41 256C180.57 255.204 180.507 254.38 180.228 253.618C179.949 252.855 179.465 252.185 178.83 251.68Z" fill="#263238"/>
<path d="M147.19 278.86C147.02 278.81 140.32 277.68 141.29 284.17C142.26 290.66 148.68 288.36 148.66 288.17C148.64 287.98 147.19 278.86 147.19 278.86Z" fill="#FFBE9D"/>
<path d="M146.28 286C146.28 286 146.18 286.1 146 286.21C145.743 286.367 145.435 286.421 145.14 286.36C144.678 286.157 144.279 285.836 143.982 285.428C143.685 285.021 143.501 284.542 143.45 284.04C143.354 283.484 143.382 282.914 143.53 282.37C143.561 282.155 143.645 281.951 143.774 281.777C143.903 281.602 144.073 281.462 144.27 281.37C144.396 281.318 144.536 281.31 144.667 281.349C144.798 281.387 144.912 281.468 144.99 281.58C145.1 281.75 145.08 281.89 145.12 281.89C145.16 281.89 145.24 281.76 145.12 281.5C145.053 281.347 144.941 281.218 144.8 281.13C144.596 281.025 144.361 281 144.14 281.06C143.889 281.159 143.667 281.319 143.492 281.525C143.318 281.731 143.197 281.976 143.14 282.24C142.947 282.844 142.906 283.486 143.02 284.11C143.079 284.694 143.309 285.249 143.681 285.704C144.052 286.159 144.549 286.495 145.11 286.67C145.291 286.691 145.474 286.672 145.646 286.615C145.819 286.558 145.977 286.464 146.11 286.34C146.29 286.16 146.3 286 146.28 286Z" fill="#EB996E"/>
<path d="M132.4 325.85C132.58 325.774 132.776 325.743 132.97 325.76C133.54 325.809 134.069 326.073 134.45 326.5C134.757 326.827 134.992 327.215 135.14 327.639C135.288 328.063 135.346 328.513 135.31 328.96C135.193 330.107 134.938 331.235 134.55 332.32C134.306 332.94 134.2 333.605 134.24 334.27C134.28 334.935 134.464 335.584 134.78 336.17C135.49 337.41 136.94 338.36 137.53 340.09C137.82 340.972 137.837 341.922 137.578 342.814C137.32 343.706 136.797 344.5 136.08 345.09C135.314 345.717 134.368 346.084 133.38 346.14C132.399 346.128 131.425 345.969 130.49 345.67C129.62 345.378 128.689 345.319 127.79 345.5C126.96 345.8 126.255 346.37 125.79 347.12C125.295 347.884 124.725 348.598 124.09 349.25C123.754 349.569 123.356 349.817 122.921 349.976C122.486 350.136 122.023 350.206 121.56 350.18C120.725 350.109 119.92 349.829 119.221 349.366C118.522 348.903 117.951 348.272 117.56 347.53C116.935 346.258 116.594 344.866 116.56 343.45C116.49 342.17 116.56 341.02 116.56 340.02C116.55 339.166 116.477 338.313 116.34 337.47C116.196 336.754 115.992 336.052 115.73 335.37C115.846 335.523 115.94 335.691 116.01 335.87C116.247 336.366 116.422 336.89 116.53 337.43C116.715 338.278 116.822 339.142 116.85 340.01C116.85 341.01 116.85 342.17 116.98 343.43C117.027 344.784 117.368 346.111 117.98 347.32C118.343 347.984 118.864 348.549 119.497 348.964C120.13 349.379 120.856 349.632 121.61 349.7C122.009 349.721 122.407 349.658 122.781 349.517C123.154 349.376 123.495 349.159 123.78 348.88C124.39 348.249 124.936 347.559 125.41 346.82C125.938 345.977 126.734 345.336 127.67 345C128.667 344.782 129.704 344.841 130.67 345.17C131.558 345.446 132.48 345.597 133.41 345.62C134.291 345.572 135.135 345.247 135.82 344.69C136.464 344.164 136.935 343.457 137.171 342.659C137.406 341.861 137.396 341.011 137.14 340.22C136.65 338.69 135.24 337.72 134.46 336.37C134.07 335.715 133.872 334.963 133.89 334.2C133.927 333.521 134.048 332.849 134.25 332.2C134.654 331.143 134.933 330.042 135.08 328.92C135.127 328.506 135.087 328.087 134.963 327.689C134.839 327.291 134.634 326.924 134.36 326.61C134.017 326.206 133.542 325.937 133.02 325.85C132.6 325.82 132.4 325.88 132.4 325.85Z" fill="#FAFAFA"/>
<path d="M135.15 395.84C135.15 395.84 135.22 396.08 135.45 396.46C135.814 397.001 136.367 397.386 137 397.54C137.49 397.678 138.006 397.696 138.504 397.592C139.002 397.487 139.467 397.264 139.86 396.94C140.877 396.025 141.551 394.79 141.77 393.44C142.09 391.95 142.03 390.25 142.32 388.44C142.459 387.482 142.771 386.557 143.24 385.71C143.744 384.777 144.557 384.048 145.54 383.65C146.569 383.285 147.673 383.185 148.75 383.36C149.84 383.47 150.91 383.72 151.99 383.86C153.079 384.037 154.193 383.983 155.26 383.7C156.343 383.387 157.341 382.833 158.18 382.08C159.017 381.326 159.638 380.363 159.98 379.29C160.286 378.245 160.265 377.132 159.92 376.1C159.631 375.112 159.069 374.225 158.3 373.541C157.531 372.857 156.585 372.402 155.57 372.23C153.57 372.01 151.77 372.98 149.88 373.02C148.963 373.047 148.055 372.841 147.24 372.42C146.508 372.046 145.814 371.601 145.17 371.09C144.128 370.191 142.945 369.468 141.67 368.95C141.185 368.765 140.666 368.687 140.148 368.722C139.63 368.756 139.126 368.902 138.67 369.15C138.091 369.445 137.637 369.939 137.39 370.54C137.325 370.76 137.271 370.984 137.23 371.21C137.197 370.975 137.217 370.736 137.29 370.51C137.507 369.854 137.964 369.303 138.57 368.97C139.001 368.721 139.477 368.558 139.97 368.49C140.557 368.432 141.149 368.497 141.71 368.68C143.034 369.176 144.265 369.893 145.35 370.8C146.587 371.898 148.167 372.531 149.82 372.59C150.745 372.512 151.659 372.341 152.55 372.08C153.523 371.794 154.539 371.685 155.55 371.76C156.659 371.935 157.695 372.42 158.54 373.16C159.384 373.9 160.001 374.864 160.32 375.94C160.709 377.071 160.733 378.295 160.39 379.44C160.019 380.594 159.35 381.629 158.45 382.44C157.554 383.252 156.483 383.848 155.32 384.18C154.188 384.481 153.005 384.536 151.85 384.34C150.73 384.19 149.66 383.95 148.62 383.83C147.615 383.659 146.583 383.745 145.62 384.08C144.729 384.425 143.991 385.078 143.54 385.92C143.093 386.718 142.789 387.588 142.64 388.49C142.35 390.26 142.38 391.98 142.03 393.49C141.773 394.91 141.035 396.199 139.94 397.14C139.51 397.48 139.004 397.708 138.465 397.806C137.926 397.903 137.372 397.867 136.85 397.7C136.518 397.611 136.206 397.458 135.933 397.249C135.66 397.039 135.432 396.778 135.26 396.48C135.176 396.278 135.138 396.059 135.15 395.84Z" fill="#FAFAFA"/>
<path d="M169.12 335.25C169.3 334.906 169.532 334.592 169.81 334.32C170.623 333.511 171.675 332.985 172.81 332.82C173.703 332.688 174.616 332.794 175.455 333.128C176.295 333.461 177.031 334.011 177.59 334.72C178.302 335.601 178.725 336.68 178.8 337.81C178.795 339.012 179.055 340.2 179.56 341.29C179.906 341.812 180.422 342.197 181.02 342.38C181.671 342.569 182.343 342.673 183.02 342.69C183.72 342.69 184.44 342.69 185.19 342.79C185.98 342.832 186.741 343.103 187.38 343.57C187.709 343.839 187.969 344.181 188.14 344.57C188.306 344.965 188.375 345.393 188.34 345.82C188.243 346.657 187.894 347.445 187.34 348.08C186.785 348.732 186.105 349.266 185.34 349.65C184.59 350.03 183.8 350.34 183.03 350.7C182.257 351.024 181.538 351.466 180.9 352.01C180.276 352.576 179.84 353.319 179.65 354.14C179.24 355.82 179.65 357.64 179.53 359.54C179.475 360.516 179.216 361.47 178.77 362.34C178.539 362.803 178.204 363.205 177.791 363.516C177.378 363.827 176.898 364.037 176.39 364.13C175.868 364.177 175.342 364.112 174.847 363.939C174.352 363.767 173.9 363.491 173.52 363.13C172.753 362.47 172.107 361.681 171.61 360.8C171.145 359.954 170.631 359.136 170.07 358.35C169.546 357.593 168.803 357.013 167.94 356.69C167.074 356.436 166.146 356.496 165.32 356.86C164.47 357.22 163.653 357.655 162.88 358.16C162.099 358.672 161.268 359.105 160.4 359.45C159.519 359.77 158.587 359.926 157.65 359.91C155.84 359.86 154.092 359.245 152.65 358.15C151.25 357.123 150.275 355.618 149.91 353.92C149.707 353.12 149.71 352.281 149.918 351.482C150.126 350.683 150.533 349.95 151.1 349.35C151.689 348.833 152.397 348.469 153.16 348.29C153.868 348.121 154.586 347.997 155.31 347.92C156.63 347.859 157.906 347.426 158.99 346.67C159.896 345.852 160.584 344.821 160.99 343.67C161.42 342.6 161.7 341.54 162.07 340.57C162.381 339.653 162.837 338.793 163.42 338.02C163.941 337.402 164.524 336.839 165.16 336.34C166.008 335.59 167.046 335.089 168.16 334.89C168.356 334.859 168.557 334.871 168.749 334.925C168.94 334.978 169.118 335.072 169.27 335.2C168.934 335.017 168.549 334.947 168.17 335C167.096 335.234 166.105 335.752 165.3 336.5C164.682 336.998 164.118 337.562 163.62 338.18C163.073 338.941 162.645 339.78 162.35 340.67C162 341.67 161.73 342.67 161.35 343.79C160.954 344.983 160.267 346.059 159.35 346.92C158.218 347.737 156.874 348.21 155.48 348.28C154.11 348.49 152.58 348.64 151.48 349.64C150.977 350.194 150.622 350.865 150.447 351.592C150.272 352.319 150.284 353.078 150.48 353.8C150.837 355.382 151.753 356.781 153.06 357.74C154.428 358.764 156.081 359.337 157.79 359.38C158.663 359.398 159.531 359.252 160.35 358.95C161.189 358.61 161.993 358.188 162.75 357.69C163.463 357.199 164.216 356.768 165 356.4C165.946 355.983 167.011 355.919 168 356.22C168.962 356.572 169.793 357.211 170.38 358.05C170.959 358.853 171.487 359.691 171.96 360.56C172.433 361.383 173.037 362.123 173.75 362.75C174.077 363.056 174.465 363.289 174.89 363.432C175.314 363.575 175.764 363.626 176.21 363.58C176.64 363.504 177.046 363.326 177.394 363.062C177.742 362.797 178.021 362.454 178.21 362.06C178.618 361.257 178.856 360.379 178.91 359.48C179.01 357.69 178.61 355.82 179.06 353.99C179.276 353.077 179.764 352.25 180.46 351.62C181.135 351.039 181.897 350.57 182.72 350.23C183.51 349.87 184.29 349.57 185.02 349.23C185.728 348.876 186.357 348.383 186.87 347.78C187.4 347.231 187.749 346.533 187.87 345.78C187.894 345.439 187.839 345.097 187.71 344.78C187.561 344.462 187.342 344.182 187.07 343.96C186.485 343.539 185.79 343.299 185.07 343.27C184.36 343.19 183.64 343.19 182.93 343.15C182.221 343.125 181.518 343.007 180.84 342.8C180.167 342.581 179.589 342.14 179.2 341.55C178.669 340.411 178.402 339.167 178.42 337.91C178.375 336.82 177.99 335.771 177.32 334.91C176.794 334.23 176.102 333.697 175.31 333.362C174.519 333.028 173.654 332.903 172.8 333C171.713 333.149 170.697 333.627 169.89 334.37C169.616 334.648 169.359 334.942 169.12 335.25Z" fill="#FAFAFA"/>
<path d="M152.29 318.37C151.731 318.93 150.997 319.283 150.21 319.37C149.372 319.537 148.508 319.537 147.67 319.37C146.599 319.198 145.628 318.639 144.94 317.8C144.338 316.911 143.992 315.873 143.94 314.8C143.862 313.953 143.919 313.099 144.11 312.27C144.226 311.5 144.604 310.794 145.18 310.27C144.86 310.945 144.624 311.657 144.48 312.39C144.343 313.186 144.32 313.997 144.41 314.8C144.488 315.767 144.808 316.699 145.34 317.51C145.948 318.254 146.803 318.755 147.75 318.92C148.532 319.086 149.337 319.116 150.13 319.01C150.871 318.877 151.596 318.662 152.29 318.37Z" fill="#FAFAFA"/>
<path d="M195.34 315.82C195.34 315.82 195.34 315.92 195.27 316.09C195.177 316.348 195.045 316.591 194.88 316.81C194.264 317.632 193.385 318.218 192.39 318.47C191.696 318.632 190.974 318.632 190.28 318.47C189.496 318.249 188.769 317.86 188.15 317.33C187.534 316.777 186.822 316.34 186.05 316.04C185.652 315.931 185.229 315.954 184.845 316.105C184.461 316.257 184.137 316.529 183.92 316.88C183.449 317.661 183.038 318.477 182.69 319.32C182.292 320.135 181.68 320.826 180.92 321.32C180.392 321.678 179.797 321.924 179.171 322.046C178.545 322.167 177.901 322.16 177.277 322.026C176.654 321.891 176.064 321.631 175.544 321.263C175.024 320.894 174.583 320.424 174.25 319.88C174.024 319.591 173.882 319.245 173.84 318.88C173.84 318.88 174.01 319.23 174.41 319.78C174.985 320.549 175.77 321.135 176.67 321.47C177.727 321.826 178.879 321.78 179.904 321.341C180.93 320.902 181.757 320.1 182.23 319.09C182.588 318.223 183.009 317.384 183.49 316.58C183.78 316.137 184.194 315.789 184.68 315.58C185.16 315.396 185.687 315.375 186.18 315.52C187.018 315.841 187.788 316.315 188.45 316.92C189.007 317.421 189.665 317.796 190.38 318.02C191.015 318.165 191.675 318.165 192.31 318.02C193.245 317.818 194.09 317.32 194.72 316.6C195.16 316.17 195.3 315.8 195.34 315.82Z" fill="#FAFAFA"/>
<path d="M202.47 355.08C202.071 354.887 201.698 354.645 201.36 354.36C200.388 353.64 199.475 352.845 198.63 351.98C198.036 351.367 197.503 350.697 197.04 349.98C196.505 349.146 196.164 348.203 196.04 347.22C195.876 346.123 196.054 345.002 196.55 344.01C196.823 343.485 197.209 343.028 197.68 342.67C198.147 342.322 198.638 342.008 199.15 341.73C199.635 341.456 200.082 341.12 200.48 340.73C200.841 340.36 201.106 339.907 201.25 339.41C201.479 338.426 201.513 337.407 201.35 336.41C201.188 335.459 201.117 334.495 201.14 333.53C201.138 332.645 201.471 331.791 202.07 331.14C203 330.308 204.193 329.83 205.44 329.79C205.668 329.762 205.9 329.789 206.116 329.869C206.332 329.949 206.525 330.08 206.68 330.25C206.301 330.054 205.876 329.964 205.45 329.99C204.283 330.103 203.186 330.599 202.33 331.4C201.816 332 201.544 332.77 201.57 333.56C201.575 334.495 201.659 335.429 201.82 336.35C202.017 337.421 201.99 338.52 201.74 339.58C201.578 340.16 201.272 340.69 200.85 341.12C200.421 341.535 199.937 341.889 199.41 342.17C198.408 342.618 197.567 343.361 197 344.3C196.549 345.203 196.379 346.22 196.51 347.22C196.79 348.943 197.626 350.527 198.89 351.73C201 353.93 202.53 355 202.47 355.08Z" fill="#FAFAFA"/>
<path d="M181.56 374.92C181.712 374.894 181.868 374.894 182.02 374.92C182.468 374.919 182.915 374.946 183.36 375C185.014 375.151 186.623 375.62 188.1 376.38C189.212 376.945 190.189 377.745 190.962 378.724C191.735 379.702 192.287 380.837 192.58 382.05C192.926 383.52 192.704 385.066 191.96 386.38C191.561 387.082 191.021 387.694 190.374 388.178C189.727 388.661 188.987 389.006 188.2 389.19C187.391 389.334 186.559 389.289 185.77 389.06C185.095 388.836 184.365 388.836 183.69 389.06C183.051 389.329 182.493 389.76 182.07 390.31C181.665 390.841 181.307 391.407 181 392C180.453 393.241 179.543 394.287 178.39 395C177.334 395.546 176.115 395.691 174.96 395.41C174.01 395.176 173.167 394.626 172.57 393.85C172.12 393.281 171.806 392.618 171.65 391.91C171.552 391.467 171.529 391.011 171.58 390.56C171.59 390.402 171.623 390.247 171.68 390.1C171.664 390.691 171.721 391.283 171.85 391.86C172.029 392.526 172.354 393.144 172.8 393.67C173.367 394.343 174.14 394.811 175 395C176.068 395.236 177.184 395.083 178.15 394.57C179.209 393.884 180.041 392.899 180.54 391.74C181.132 390.348 182.193 389.208 183.54 388.52C184.313 388.265 185.147 388.265 185.92 388.52C186.636 388.737 187.393 388.782 188.13 388.65C188.845 388.479 189.517 388.164 190.105 387.724C190.693 387.284 191.185 386.728 191.55 386.09C192.241 384.878 192.451 383.45 192.14 382.09C191.869 380.936 191.355 379.853 190.633 378.913C189.91 377.973 188.996 377.199 187.95 376.64C186.524 375.872 184.974 375.364 183.37 375.14C182.2 375 181.55 375 181.56 374.92Z" fill="#FAFAFA"/>
<path d="M162.83 408C162.637 407.266 162.323 406.57 161.9 405.94C161.407 405.294 160.765 404.776 160.03 404.43C159.151 403.984 158.138 403.878 157.186 404.133C156.234 404.387 155.409 404.985 154.87 405.81C154.41 406.46 154.111 407.211 154 408C153.946 408.757 154.021 409.518 154.22 410.25C154.22 410.25 154.05 410.08 153.89 409.7C153.677 409.146 153.588 408.552 153.63 407.96C153.69 407.076 153.976 406.222 154.46 405.48C155.037 404.528 155.96 403.836 157.035 403.549C158.111 403.262 159.256 403.402 160.23 403.94C161.037 404.331 161.727 404.928 162.23 405.67C162.561 406.159 162.78 406.716 162.87 407.3C162.89 407.72 162.86 408 162.83 408Z" fill="#FAFAFA"/>
<path d="M166 422.5C166 422.5 165.91 422.03 165.55 421.27C165.049 420.204 164.203 419.338 163.15 418.81C162.374 418.45 161.519 418.295 160.667 418.36C159.814 418.425 158.992 418.707 158.28 419.18C157.468 419.799 156.788 420.574 156.28 421.46C155.953 421.937 155.571 422.374 155.14 422.76C154.651 423.175 154.031 423.405 153.39 423.41C152.792 423.332 152.217 423.131 151.7 422.82C151.184 422.508 150.738 422.093 150.39 421.6C149.801 420.759 149.086 420.013 148.27 419.39C147.492 418.925 146.572 418.758 145.68 418.92C144.89 419.053 144.141 419.364 143.49 419.83C142.555 420.552 141.774 421.453 141.19 422.48C140.988 422.873 140.757 423.251 140.5 423.61C140.61 423.181 140.782 422.77 141.01 422.39C141.546 421.286 142.317 420.313 143.27 419.54C143.958 419.023 144.761 418.68 145.61 418.54C146.609 418.336 147.649 418.507 148.53 419.02C149.396 419.66 150.156 420.433 150.78 421.31C151.084 421.744 151.473 422.111 151.923 422.39C152.374 422.668 152.876 422.852 153.4 422.93C154.47 422.93 155.25 422.06 155.86 421.2C156.42 420.272 157.157 419.463 158.03 418.82C158.674 418.384 159.408 418.099 160.178 417.985C160.947 417.872 161.732 417.933 162.475 418.165C163.218 418.396 163.898 418.792 164.467 419.323C165.036 419.853 165.478 420.505 165.76 421.23C165.885 421.552 165.969 421.888 166.01 422.23C166.06 422.38 166.06 422.5 166 422.5Z" fill="#FAFAFA"/>
<path d="M173.71 386.22C172.813 385.666 171.844 385.239 170.83 384.95C169.731 384.681 168.591 384.62 167.47 384.77C166.098 384.932 164.79 385.441 163.67 386.25C162.568 387.074 161.733 388.204 161.27 389.5C160.891 390.563 160.768 391.7 160.91 392.82C161.097 393.852 161.456 394.846 161.97 395.76C161.97 395.76 161.72 395.56 161.41 395.09C160.976 394.415 160.68 393.66 160.54 392.87C160.327 391.557 160.477 390.211 160.974 388.977C161.471 387.743 162.296 386.668 163.36 385.87C164.535 385.017 165.915 384.489 167.36 384.34C168.542 384.198 169.74 384.3 170.88 384.64C171.646 384.847 172.37 385.185 173.02 385.64C173.52 386 173.73 386.2 173.71 386.22Z" fill="#FAFAFA"/>
</svg>
